<?xml version="1.0" encoding="UTF-8"?><svg id="uuid-c5f5906c-074a-4d85-b5ee-7cdc5b307fc0" xmlns="http://www.w3.org/2000/svg" viewBox="0 0 764.22 193.47"><defs><style>.uuid-88f5eefc-ab5c-4f1f-b6a3-56e36d4cd9f9{fill:#E8E8E8;}</style></defs><g id="uuid-df88adc2-598e-47f2-ac9c-0273dbdca6e7"><path class="uuid-88f5eefc-ab5c-4f1f-b6a3-56e36d4cd9f9" d="M53.5,90l59.99-63.01c-55.37-16.2,42.29-15.32,45.46-12.47,12.46,11.19-18.54,13.27-26.78,18.16-3.31,1.96-54.91,50.22-54.5,54.03,19.14,20.45,35.11,43.57,53.93,64.24,2.19,2.41,1.13,7.14,2.45,8.52,6.78,7.05,34.92,19.56,35.45,21.56,2.68,10.12-42.19,7.99-47.93,5.91-10.89-3.96-49.65-69.41-61.96-77.55-2.34-1.54-3.19-1.84-6.1-1.39v68l19.99,4.01c.81.69-1.21,7.28-3.39,8.06-5.8,2.06-81.34,6.77-66.34-7.84,3.61-1.9,14.01-1.05,16-3.4,5.24-6.19,5.81-138.39.7-144.77-1.35-1.68-44.03-18.05-1.95-18.05h53l-.92,6.08c-4.13,2.72-17.08,6.53-17.08,12.92v57ZM29.49,22.01l-7.98.98,7.97,5v-5.98ZM131.47,27.95l-.96-3.94c-6.04,4.37-9.47,8.48-12.96,15.01l13.92-11.07ZM31.48,35.99c.24-.36.2-5.7,0-5.98-2.6-3.55-2.34,9.55,0,5.98ZM45.5,70v-38c-8.4,9.78-.64,23.72-4.04,34.96l4.04,3.04ZM71.49,109.99c.36-5.53-5.3-8.72-9.99-7.96,3.17,2.35,5.57,8.63,9.99,7.96ZM116.33,167.06l7.89,14.13,9.27,2.79-17.17-16.91Z"/><path class="uuid-88f5eefc-ab5c-4f1f-b6a3-56e36d4cd9f9" d="M763.08,177.63c-1.22,2.55-52.55,30.69-41.61,2.37-112.87,64.27-112.99-151.95-2-108-.49-8.43-.17-44.97-7.28-47.86-2.31-.94-17.26,5.47-12.83-6.94.9-2.53,47.65-23.26,48.17-10.22l-1.9,151.9c-.9,16,24.15,4.82,17.45,18.76ZM739.49,75.99l1.01-42.01-5.06,36.94,4.05,5.08ZM680.07,167.43c9.42,6.28,33.81,6.83,38.82-6.7,4.68-12.65,2.03-78.22-18.87-82.24-45.76-8.81-43.37,73.34-19.95,88.94ZM729.49,187.99l-1.96-13.97c-.53,3.94-6.08,15.46,1.96,13.97Z"/><path class="uuid-88f5eefc-ab5c-4f1f-b6a3-56e36d4cd9f9" d="M341.5,0v78c72.81-46.3,115.65,70.48,49.74,106.74-33.07,18.2-46.68-.46-77.73,1.25l-2.03-158.97c-38.44-18.89,12.16-23.49,30.01-27.01ZM329.5,13c-.44,15.64.32,31.37,0,47l6.06-51c-14.35-10.52-6.04,3.28-6.06,4ZM319.5,26.01v23.97s2.01,0,2.01,0v-23.97s-2.01,0-2.01,0ZM358.81,84.61c-6.26.3-15.55,5.89-17.24,12.46-1,3.88-1.01,66.06-.02,69.87,1.33,5.1,5.95,8.02,10.47,9.52,52.73,17.48,54.76-94.19,6.78-91.85ZM403.49,127.99c.36-7.96-.59-19.07-7.96-23.99l7.96,23.99ZM329.5,112v55c0,.9,4.86,5.12,6.03,1.97l-6.03-56.97ZM405.53,158c10.26-8.45,13.68-21.17,11.95-33.99l-11.95,33.99Z"/><path class="uuid-88f5eefc-ab5c-4f1f-b6a3-56e36d4cd9f9" d="M272.76,173.25c-50.01,54.7-134.57-11.66-90.88-79.88,47.1-73.56,151.27,13.83,90.88,79.88ZM222.95,78.42c-32.07,6.98-30.88,106.96,13.35,101.48,35.43-4.39,29.76-110.87-13.35-101.48ZM279.47,149.99l2-33.98-5.93,33.03,3.92.95Z"/><path class="uuid-88f5eefc-ab5c-4f1f-b6a3-56e36d4cd9f9" d="M546.56,161.09c-37.89,79.22-158.32-3-95-76.03,46.05-53.12,128.37,6.26,95,76.03ZM491.05,76.35c-35.11,3.71-35.08,103.94,5.08,104.94,44.84,1.12,33.3-109-5.08-104.94ZM447.48,152c-1.19-5.94-2.38-15.15-5.95-19.99-.1,6.41-.56,16.28,5.95,19.99ZM539.47,164l6-25.98c-1.51,6.43-12.44,22.71-6,25.98ZM447.52,154.02c.04,3.87,2.17,7.48,5,9.93-.22-2.49-2.05-9.7-5-9.93ZM467.49,168.03h-3.97v1.95h3.97v-1.95ZM473.5,178c2.84,2.93,4.05,10.1,13.99,7.97-2.7-3.41-10.23-5.2-13.99-7.97-.89-.92-.25-7.47-5.99-5.99-1.26,5.8,4.35,4.78,5.99,5.99Z"/><path class="uuid-88f5eefc-ab5c-4f1f-b6a3-56e36d4cd9f9" d="M609.98,173.67c2.42,6.15,24.16,8.04,17.53,14.31-3.12,2.95-59.56,4.66-61.99-3.01-1.64-5.17,12.57-4.47,15.01-8.95,4.67-8.62,5.28-146.74-.92-151.13-3.57-2.53-16.49,1.87-13.92-7.7,5.72-5.7,37.89-20.12,42.95-13.32,6.34,8.54-1.24,83.56-1.08,99.12.09,9.28,1.13,67.39,2.42,70.68ZM597.47,21.99c5.25-9.83-6.28-19.91-2.63-4.29.48,2.04-.17,4.88,2.63,4.29ZM596.5,26v2l1-1-1-1ZM593.5,90v-39c0-.42-2.82-3.2-4-3v42h4ZM603.5,126h-2v28h2v-28Z"/></g></svg>
