<?xml version="1.0" encoding="UTF-8"?><svg id="uuid-6fd9f39b-9cd8-4c39-b1fd-1a754e3a3a1f" xmlns="http://www.w3.org/2000/svg" viewBox="0 0 1178.3 902.13"><defs><style>.uuid-93170ab2-55bd-42bc-b0c0-1b66228c9214{fill:#43b7ae;}.uuid-9697a43c-019b-40e7-9a76-bb918e0f299c{fill:#a05347;}.uuid-dcd032da-6822-48bb-b0ad-7d658387498d{fill:#E8E8E8;}.uuid-989a01a4-4776-4ffb-aeca-89178d2164de{fill:#c41414;}</style></defs><g id="uuid-1456a5ff-af70-4fdb-a417-54a31b481847"><path class="uuid-dcd032da-6822-48bb-b0ad-7d658387498d" d="M396.08,274.99c-.51,2.45-2.22,6.29-5.99,4.99-1.28-49.21-4.66-99.73-2.08-149.06.48-9.26,2.27-47.99,4.46-53.54,4.94-12.55,73.27-6.47,88.68-7.32,113.64-6.3,220.12-.85,333.83.03,67.38.53,135.52-8.93,201.11,1.91-8.1,23.89,3.14,52.88,4.09,78.89,4.06,110.08-12.84,221.98-8.11,332.09l4.01-13.99v-79l-3.88,441.09c-108.07,12.94-216.74,1.1-325.23.87-52.17-.11-111.66,6.48-163.78,6.13-42.87-.29-86.15-4.57-128.95-4.15-1.39-4.44-3.53-8.13-4.2-12.9-2.75-19.64-5.19-81.72-4.02-102.11,1.51-26.47,13.07-45.26,11.09-72.94l7.2,163.19c-.96,3.82-9.58,15.66-6.23,18.82.8.76,21.57,2.58,15.01-6,182.48,6.66,364.91,2.88,546.98-5.96l-13.05,3.91-133.97,6.06-2.95,3.99,194-6.02-2.03-630.96,4.05.03v76.95s4.06-22.89,4.06-22.89l-7.25-169.2-248.83.11,25.97,7.96c-125.87-6.87-252.3-8.69-378.72-7.71-6.34,3.01-5.09,26.46-1.29,31.72l4.01-21.98v163.97s-7.99-11.99-7.99-11.99c-1.44,10.28,1.97,25.46,0,35ZM748.07,78l-45.97-4c-.99,5.5,15.55,5.56,19.02,5.95,8,.9,16.33-1.33,24.17,1.87l2.78-3.82ZM1006.05,769.97c6.62-34.88-.18-70.78-.97-106.01-2.53,35.11-6.33,71.27.97,106.01Z"/><path class="uuid-dcd032da-6822-48bb-b0ad-7d658387498d" d="M1118.85,406.81c-3.7,1.61-3.59,5.5-12.75,1.19l-2.01,88c39.38-25.27,26.44,96.8,22.86,101.86-5.72,8.07-13.72,1.91-15.83,12.11-3.72-3.61-14.5-18.89-15.17-22.89-6.6-39.17,5.28-59.95,6.12-179.91,0-.75-5.9-1.68-5.98-10.16-.19-17.95-1.96-67.51.03-81.82,2.26-16.17,27.46-23.06,33.07.7,1.71,7.23,2.47,77.06.81,83.03-2.18,7.85-5.7,5.53-11.15,7.9ZM1122.08,399.99v-83c0-1.43-3.34-8.1-5.25-8.84-13.55-5.23-10.74,22.37-10.85,28.94-.12,7.35,1.04,56.95,2.39,59.61,2.68,5.29,9.26,2.94,13.71,3.29ZM1108.08,506.99c-2.56,7.09,0,70.42,0,84,0,4.08,14,4.08,14,0v-84c0-7.89-12-5.53-14,0Z"/><polygon class="uuid-dcd032da-6822-48bb-b0ad-7d658387498d" points="1148.07 490 1150.08 640.99 1145.11 790 1146.07 638.98 1148.07 490"/><path class="uuid-dcd032da-6822-48bb-b0ad-7d658387498d" d="M1070.07,24l-94.99,3.99-95.01-1.03c30.36-5.53,62.33-2.85,93-3.11,32.42-.28,64.63-1.79,97,.15Z"/><path class="uuid-dcd032da-6822-48bb-b0ad-7d658387498d" d="M356.07,34c-3.42,6.35-13.69,20.55-14,27.19-.2,4.43,4.22,7.34,4.11,11.71-1.05,41.73.95,83.88-4.07,125.07-4.58-41.62-1.74-83.39.17-125.05.15-3.18-4.75-1.39-4.32-9.8.23-4.43,13.45-33.16,18.11-29.13Z"/><path class="uuid-dcd032da-6822-48bb-b0ad-7d658387498d" d="M1006.08,875.99c-48.12,7.24-97.55,5.95-145.99,3.99-2.61-4.71,11.46-3.99,12.99-3.99h133Z"/><polygon class="uuid-dcd032da-6822-48bb-b0ad-7d658387498d" points="1148.08 119.99 1148.08 244.99 1143.98 201.09 1144.08 122.95 1148.08 119.99"/><path class="uuid-dcd032da-6822-48bb-b0ad-7d658387498d" d="M350.08,875.99c28.02,24.42,56.28,8.5,84.85,7.85,106.64-2.43,214.25,4.75,321.14.13l-94.8-4.19-7.18-3.76c69.61-6.06,139.48,7.99,208.92,10.04,44.85,1.33,203.02,7.01,236.43-3.71,19.55-6.28,44.01-35.97,51.47-54.53,6.68-16.64.19-62.24,1.07-84.93,7.56-194.44,9.32-389.51.07-583.87.29-2.7,4.03,1.74,4.03,1.97v31c5.08-37.51,6.48-82.9-4.03-120l-7.96,13.99c2.53-40.08-20.21-49.49-49.15-67.84-224.03-.15-451.72-4.43-673.78-2.24-30.68.3-87.09-4.8-87.09,41.09v189l-4-9v-39c-1.12.12-4-.2-4,0v38l-4.01-2.96c2.59-54.52-2.94-110.03-1.15-164.31.67-20.3.68-33.64,17.16-51.72,5.11-5.6,30.39-25.24,19.99-9.04,160.99-11.98,323.44-1.5,485.1-1.88,67.23-.16,134.88-5.21,202.23-5.29,18.86-.02,36.3,3.82,52.66-.8l-7.97,7.96c7.97-1.59,27.96,10.86,33.01,9.97,2.71-.47-4.64-6.53,1.99-5.98,10.97.9,51.22,59.67,50.98,75.08l-12-13.02c18.96,66.67,6.45,136.36,7.9,205.08.63,29.79,10.33,62.2,2.12,90.89l-6-53.98c-.36,76.82,1.82,153.36-2,229.98l5.95-25.98-2.19,181.06c7.9,6.44,1.66,9.44,2.12,16.05,1.21,17.38,12.15,43.79,2.12,60.86l-2-21.98-4.06,65.97,7.03-17.99,3.05,1.03c-17.28,56.55-43.53,99.31-109,97.03l-9.03-2.03c26.62-.51,4.98-6.32-8-4l5.98,3.95c-8.93,3.9-12.26-4.03-13-4-5.15.18-1.52,4.12-5.83,4.21-87.81,1.9-176.22-4.68-264.12-4.3-132.2.57-263.56,3.24-396.09,2.18-6.42-.05-19.68-4.53-24.17-3.93-7.42.98-1.98,7.47-3.74,7.82-1.91.37-27.45-24.79-28.54-26.4-5.62-8.29,4.79-3.87,3.34-10.37-1.55-6.94-4.89-18.8-9.78-24.2,1.86-2.05,4.98,4.38,5.93,3.02,3.9-5.61-3.99-118.42-3.17-136.67,2.16-48.06,10.04-9.88,9.22,10.66l3.99-31.98c12.35,50.32-4.79,108.73,2.25,160.72,2.11,15.55,4.3,19.31,15.73,29.27-2.09-2.42-12-32.68-12-37v-35c11.58,10.94,3.57,31.65,6.47,46.53.35,1.78,19.99,42.27,5.53,25.47ZM355.11,8.04l-2.97,2.97.93.93,2.05-1.95v-1.95ZM1160.08,783.99v-33c0-.42-2.82-3.2-4-3v36h4ZM1158.06,805.97c-.96-3.49,2.41-13.21-1.95-13.98,1,3.37-2.46,12.96,1.95,13.98ZM1129.11,880.04c-4.88,2.4-9.81,4.23-12.98,8.97,4.75.07,12.64-3.62,12.98-8.97Z"/><path class="uuid-dcd032da-6822-48bb-b0ad-7d658387498d" d="M1156.06,373.97c-5.04-8.87-14.89-109.78-6.96-109.98l6.96,109.98Z"/><path class="uuid-dcd032da-6822-48bb-b0ad-7d658387498d" d="M468.08,877.96c-27.05,1.94-54.19-1.8-81.12-2.12-1.26-.01-16.13,10.67-22.88-1.84l104,3.95Z"/><polygon class="uuid-dcd032da-6822-48bb-b0ad-7d658387498d" points="418.07 880.01 397.19 883.87 386.1 878.01 418.07 880.01"/><rect class="uuid-dcd032da-6822-48bb-b0ad-7d658387498d" x="1005.1" y="372.98" width="23.97" height="2.02" transform="translate(642.8 1390.96) rotate(-89.98)"/><path class="uuid-dcd032da-6822-48bb-b0ad-7d658387498d" d="M1154.06,145.97c-3.22-1.89-4.88-13.61-.96-15.98,2.25,4.78.46,10.86.96,15.98Z"/><rect class="uuid-dcd032da-6822-48bb-b0ad-7d658387498d" x="1072.04" y="876.98" width="16.27" height="2.54" transform="translate(-115.07 164.46) rotate(-8.27)"/><circle class="uuid-dcd032da-6822-48bb-b0ad-7d658387498d" cx="1148.12" cy="255.95" r="2.47"/><path class="uuid-dcd032da-6822-48bb-b0ad-7d658387498d" d="M1154.06,153.97c-2.34,3.57-2.6-9.53,0-5.98.2.27.24,5.62,0,5.98Z"/><polygon class="uuid-dcd032da-6822-48bb-b0ad-7d658387498d" points="319.08 53.99 320.08 54.99 319.08 55.99 319.08 53.99"/></g><g id="uuid-2fba9a7f-17a9-47fb-a51c-269d4c87acde"><g id="uuid-e16c6d80-6df1-412d-bc01-8be5677099d4"><path class="uuid-dcd032da-6822-48bb-b0ad-7d658387498d" d="M444.08,511.99c-17.41,20.24-40.79,26.86-66,18-6.56-2.3-12.98-7.33-18-12-2.5-2.33-2.93-6.73-4-8,8.79-5.98,8.4,5.91,11.41,8.11,11.02,8.06,31.18,13.78,44.57,9.86l-7.97-3.95c13.02.84,23.97-3.84,33.52-12.47,2.29-2.07-3.56-10.36,14.47-13.55-3.48,4.11-5.35,10.92-8,14Z"/><path class="uuid-dcd032da-6822-48bb-b0ad-7d658387498d" d="M892.08,303.99c9.86,1.38,28.48,3.44,6,10-33.28,9.71-75.11,10.09-108.03,25,36.5-3.83,71.61-13.89,108.03-19,4.97-.7,26-5.55,28-3.97,3,2.36-37.59,56.14,19.99,49.99-.13,9.29-14.2,4.17-17.99,3.99-2.91-.14-9.36.94-14-6-7.95-11.89-7.4-29.51-2.01-41.99l-173.52,39.46c-14.67,16.16-13.74,47.34,6.43,58.68l169.1-46.15c.05.2,4.14-.8,4.02.97-.72,10.1-21.76,6.13-26.02,15.01l44.97-10.01c.43,2.37-8.54,4.95-10.97,6.04-47.67,21.39-119.3,35.68-171.48,51.89-7.37,2.29-18.24-4.79-12.53,6.1l-9.99-1.96,16,5.95-4-5.95c9.51-2.54,8.72,5.8,12,11.98.28.52-.21,6.62,2.43,11.63.72,1.36,5.98-1.12,7.69,1.7,5.03,8.28,3.67,22.05,3.86,31.35.04,1.92,3.99,1.15,3.99,1.36.02,1.3-16.27,11.57-8.94,13.98,8.03,2.64,134.71-63.9,155.52-66.48,13.13-3.57,10.39-40.03,5.21-43.26-6.27-3.91-88.33,29.62-102.22,34.25-19.36,6.45-47.69,18.06-65.53,15.47l153.54-53.46c28.29-13.47,41.75,23.67,29.38,43.38-10.56,16.83-152.72,60.75-178.44,77.65l-64.48-13.55c13.85,7.82,44.08,25.73,59.36,25.28,17.97-.54,129.83-58.78,158.34-69.06,6.07-2.19,13.15.11,14.3-.24,51.88,16.03,6.04,25.75,2.89,33.89-1.33,3.45-1.74,33.43-.53,35.76,2.2,4.25,27.18,8.98,29.55,10.46.95.6-.58,7.2.07,7.91,1.04,1.13,9.81-2.54,8,2.95-.73,2.22-23.99,13.63-28.27,15.75-24.26,12-86.19,29.21-103.26,42.52-3.31,2.59-53.54,76.54-60.27,47.34-.94-4.06,4.09-6.88,3.48-9.22-7.29-27.95-25.29.09-41.18,2.37-3.63.52-23.89-6.26-29.47-5.75-1.32,3.75,7.23,6.06-.03,6.05-11.89-.02-105.09-51.42-128.47-59.55-19.38-6.74-38.27-11.46-58.53-14.47h30l-1.99-5.98,18.97,4.01,1.02-4.03c16.89,16.38,14.44-8.38,8.65-14.15-18.18-18.11-7.42,8.67-8.65,14.15-25.26-24.49-6.39-22.35,14-16,1.63,2.46,1.83,5.15,2,8,.24,3.88-.83,16.45.04,17.98.95,1.68,31.9,12.16,35.96,14.02.86.39,9.66,12.17,15.99,9.99-1.96-7.09-5.17-14.65-5.99-21.99-.54-4.82,2.15-9.57,0-14,1.19-.43,2.45-1.87,4-2,.24,7.92,10.18,19.99,12.03,27.98,2.91-5.03,2.09-11.24,3.97-17.98,3.64,30.82,9.6,48.08,43.98,49.99-4.22-11.79-5.55-25.68-3.98-37.99,1.67-13.1,15.97-43.83,16.99-16.01l17.01-17.01c-4.12-9.64-15.25-5.87-22-2.97,5.91-9.27-29.92-16.53-31.69-15.79-.93.39-10.42,16.16-9.39,17.86,6.23,1.89,16.17,10.02,22.12,10.11,10.14.15,7.73-5.65,12.96-8.18-1.63,33.66-66.14-1.09-28-23.97-.62-.86-11.85-1.31-14-2.03-7.91-2.64-8.64-7.27-20-4-.14-7.69-12.07-8.46-18-8-3.35-11.64-36.38-4.26-20.96-21.98,5.24,10.42,12.32,1.8,20.96-2.02,7.04.68,16.48-1.68,26,0,1.24.22,2.82-.27,4,0,4.67,1.07,32.58,11.4,30.16,17.87,33.89-12.64-11.81-17.17-26.16-21.87-9.29-3.04-26.29-4.84-20.97-14.03,21.9-.27,105.48,37.35,119.5,33.61,11.81-3.14,12.09-22.28,9.1-31.24l-69.63-20.32,65.07,17.92c5.33,1.19,2.53-6.06,1.48-7.5-5.7-7.77-84.37-23.01-98.53-28.48l13.97-2c-14.49-7.92-39.25-15.53-55.99-15.97,3.11-10.53-10.11-3.5-10-12,2.19.2,51.17,12.55,34.6,2.01-7.59-4.82-43.81-6.9-54.58-14.05l23.98,2.01-2-3.97c5.03-.53,24.84,2.79,28,4,1.38.53,2.63,1.51,4,2,1.3.47,14.44,14.52,24,9.97l-10-33.97c1.68,1.32,1.4-6.43,4,2,4.3,13.94,3.79,27.32,22.32,34.68,23.2,9.22,22.4-1.34,19.68-22.68l18-36c12.6,2.99-4.55,12.7,6.89,8.08,4.76-1.92,3.47-11.8,4.07-12.02.38-.14,4.9,3.39,7.93,2.01,15.51-7.08,30.36-12.73,47.09-16.1l-23.96-1.94,129.98-36.03ZM708.06,415.97c-.3-5.23,2.14-13.56-3.95-15.99.8,4.04-.08,13.75,3.95,15.99ZM709.08,417.99v2l1-1-1-1ZM742.08,431.99c3.88-.37,18.54-1.26,17.99-7.99l-29.97-2,5.99,7.99c-3.31.16-6.68-.13-9.99.01,1.19,7.34,14.12,10.47,15.99,1.99ZM686.06,430.02l-21.96-6.02c-1.82,14.73,15.44,5.53,16.02,13.97l5.95-7.94ZM752.07,463.98c.32-3.96.69-5.73-3.34-7.63-14.23-6.73-55.51-9.1-72.63-14.33l75.97,21.96ZM942.07,474.02l-19.99-4.01,7.98,4-3.97,5.96,13.23-1.74,2.75-4.21ZM926.07,496l-193.98,67c-5.66,3.99-13.25,21.51-13.84,28.21-.23,2.6,3.96,35.06,4.72,36.76,2.85,6.42,25.52,3.95,30.67.58l10.43-4.59-15.97,2.01c.97-1.35,6.53-5.03,7.77-5.65,22.83-11.47,167.41-58.54,172.12-66.47,1.5-2.53-13.91-46.69-1.92-57.84ZM623.64,504.44c-3.02-1.32-8.24-.34-11.09,1.02-14.34,6.87,32.91,8.52,11.09-1.02ZM789.8,527.12l-10.79,3.35,1.36,4.37,10.79-3.35-1.36-4.37ZM770.08,538.01c-4.74-.48-16.41.76-15.98,7.96l15.98-7.96ZM958.08,550.01c-16.67-5.87-20.17,6.09-21.96,6.94-5.27,2.48-17.38,4.42-18.02,11.03,13.4-1.78,31.73-7.07,39.99-17.96ZM576.06,582.02c-3.94-.95-7.81-2.51-11.97-2.01-.35,3.27,12.01,6.25,11.97,2.01ZM752.07,634l-9.51,1.45-2.47,4.53h12s-.02-5.97-.02-5.97ZM734.07,645.97l-2-4.98-9.99-.98,11.99,5.96Z"/><path class="uuid-dcd032da-6822-48bb-b0ad-7d658387498d" d="M606.08,253.99c4.72-7.68,8.33-13.94,17.99-15.99-7.02,35.26,22.4,55.05,54.01,58-15.64,15.9-48.83,15.08-69.99,19.96l7.88-4.12.11-5.85c-1.86-.37-4.39.4-6,0-8.77-2.22-1.82,1.55-4,2-2.34.48-5.9-.58-8,0,1.03-8.54-1.24-6.08-8-4-.61-2.68-.29-5.59-2-8,9.99-8.03-.51-13.34.02-13.97.25-.3,5.31-.41,7.33-2.77,3.27-3.81,7.82-12.35,8.65-13.26,6.35-7,16.88-7.05,12.97-14.04-3.56.86-7.47,1.12-10.97,2.04ZM619.06,302.04l1.02,2.97,1.02.93v-1.95l-2.05-1.95Z"/><path class="uuid-dcd032da-6822-48bb-b0ad-7d658387498d" d="M606.08,253.99c-2.07,3.36-4.5,8.26-6,12-5.21,1.1-16.27,14.18-18,18l-5.97-.96c8.17-9.52,16.77-25.59,29.97-29.04Z"/><path class="uuid-dcd032da-6822-48bb-b0ad-7d658387498d" d="M352.08,401.99c2.28,3.66,4.15,9.83,6,14,6.55,14.8,21.7,57.27,0,62-1.87-5.93,1.22-35.29-.45-44.39-4.14-22.49-17.56-48.28-41.5-54.63l35.98,70c-.58,2.94-5.18-1.04-6.03-.97-18.6-59.45-58.55-35.19-88,0-2.18-.16-7.08,5.93-6-2,.33-.32-.33-1.68,0-2,13.22-12.49,25.51-20.85,39.04-31.96,7.09-5.82-.38-16.05,18.95-12.06l-9.97-4c25.12-36.97-21.72,3.9-30.11,12.92-7.06,7.59-17.06,23.88-23.91,33.09-.98,1.32-7.7,6.7-4,8-4.53,3.87-7.83,6.46-4,12-3.28,1.38-9.32,4.17-12,6-4.83,9.55-9.44,23.17-21.99,23.99l3.99-7.99c5.41-.36,11.52-11.59,18-16,2.33-4.61,1.01-13.55,2.38-15.64,1.61-2.45,14.37-.29,11.62-12.36,9.83-14.9,61.36-75.66,77.43-70.55,5.81,1.85,30.85,26.58,34.57,32.55Z"/><path class="uuid-dcd032da-6822-48bb-b0ad-7d658387498d" d="M456.08,347.99c6.83-5.37,13.59-11.11,19.98-17.03l-9.97-4.94,39.96,1.97c-.31-13.14,20.12-55.05,35.47-33.47,7.22,10.15-6.09,22.36-9.44,33.47-11.6-3.3,19.93-35.98-3.07-33.92-4.87.44-20.83,28.81-20.66,31.3.48,6.89,9.69,5.14,11.47,6.93,1.1,1.11-.57,6.48.52,7.38,1.78,1.46,7.67,1.04,9.74,2.31.28.17,0,4.12,3.26,5.66,12.79,6.04,38.61,9.11,52.74,8.34-7.21,6.21-12.94,7.43-26,6-3.55-.39-9.49-2.91-14-4s-19.56-11.88-24.76-9.86l-9.15,24.88,43.91,4.97c4.92,6.7,11.48,10.2,16.98,16.02l-64.98-14.02,7.94-45.94c-10.82-.37-18.4-6.18-29.84-2.96-10.27,2.89-38.95,35.62-43.59,36.63-2.25.49-31.35-2.82-26.5-11.72.97-1.78,12.67,12.8,35.99-4.01,1.94-1.4,2.87-3.11,4-4Z"/><path class="uuid-dcd032da-6822-48bb-b0ad-7d658387498d" d="M772.08,285.99c-3.19-.85-59.29-16.27-37.02-17.41,1.5-.08,18.92,8.36,24.16,9.27,45.54,7.93,94.56,9.9,140.84,10.16l-2.95,3.99-17.03,1.97,45.98,8c-11.46,3.98-25.63-.71-39.99-1.97-4.94-.43-11.73-3.86-17.99-1.97,3.94,2.14,10.95,4.71,1.47,5.46-20.91,1.64-59.36-12.08-81.48-13.48-2.64-.17-5.35.03-8,0-1.9-3.17-4.91-3.18-8-4Z"/><path class="uuid-dcd032da-6822-48bb-b0ad-7d658387498d" d="M924.08,615.99c.79-.82-1.66-6.1,3.99-3.99l1.98,11.97c11.38-14.12,7.86-36.21,22.02-45.97,1.16,20.71-16.72,43.7-19.51,61.47-2.59,16.52,4.18,31.37-2.51,46.51-24.91-19.99-20.45-.79-29.09.09-4.43.45-11.6-6.5-16.99-7.17,9.53-19.79,21.59-37.47,32.11-56.91,8.04.78,7.05-5.02,8-6ZM920.08,649.99c1.51-8.14,7.4-18.54,2.03-25.98l-27.13,52.01,9.06,3.97,16.03-30c-3.08,16.55-14.05,18.62,7.99,25.99l-3.32-23.59-4.66-2.4Z"/><path class="uuid-dcd032da-6822-48bb-b0ad-7d658387498d" d="M320.08,567.99l-52,14.03,40,37.97v-36c0-1.14,19.17-5.26,22-6,3.22-.84,10.47-1.75,14-2h2l3.98-1.99c.16,1.9.96,3.68,1.47,5.52,11.55,42.13-7.13,41.52-39.48,55.72l-53.94-55.21c13.83-.62,51.28-14.69,61.98-12.05ZM345.6,615.51c3.44-4.19,3.99-31.88.63-34.69-35.24,3.95-35.47,12.15-30.14,45.17,1.04,1.17,28.51-9.27,29.51-10.48Z"/><path class="uuid-dcd032da-6822-48bb-b0ad-7d658387498d" d="M442.08,461.99c7.33,1.14,8.8,10.39,12.98,8.02,3.46-1.96-3.32-4.92,5.02-8.02-10.27,23.24,1.99,14.29,8,20,16.94,16.08,23.86,34.87,54.1,25.1,8.33-2.69,11.58-18.35,23.89-17.09,5.93,5.82-5.91,21.14-11.99,25.98l5.99-11.99-13.93,4.13,2.11,7.7,5.83.17c-31.67,25.2-58.62,6.12-78-22-1.58-2.29-6.78-11.44-8-14-2.79-5.85-5.02-11.55-6-18ZM500.06,512.02l-35.93-19.06c6.03,15.33,18.64,27.04,35.93,19.06Z"/><path class="uuid-dcd032da-6822-48bb-b0ad-7d658387498d" d="M284.08,467.99c9.93,17.77,14.83,40.85,28.98,54.03l-14.98-54.03c2.64.19,5.35-.13,8,0,.43,14.88,6.43,27.7,12,40,8.69,19.17,3.66,27.07,28,16l2.96,7.97c22.42-16.73,5.6,5.71,19.04,10.03-13.47,13.41-19.58,23.24-41.99,17.98l5.97-3.94c-12.75-3.53-17.47-4.25-17.98-18.03,9.97,18.9,26.99,12.88,42.02,2.97-15.9-6.15-29.91.73-41.03-16.96-2.04.32-.68,7.5-.99,9.99-10.39-20.61-34.14-42.22-32-66,.66.04,1.34-.04,2,0Z"/><path class="uuid-dcd032da-6822-48bb-b0ad-7d658387498d" d="M534.08,227.99c1,3.47,4.11,2.96,6,4,2.13,1.18,36.65,24.28,37.61,26.37,3.25,7.11-7.56,15.17-11.61,19.63,11.43-13.01-7.01-31.14-15.66-25.63-.92.58-10.39,16.76-9.43,19.57,2.55,7.46,20,11.85,25.09,6.06-1.1,1.22-2.58,8.68-4.43,9.55-10.38,4.9-43.77-27.45-55.55-31.6l20.46-27.47,7.52-.49ZM539.78,240.3c-6.72-14.81-26.43,14.02-25.69,15.66.29.65,12.15,6.13,12.84,5.99,1.35-.27,14.67-17.64,12.85-21.65Z"/><path class="uuid-dcd032da-6822-48bb-b0ad-7d658387498d" d="M150.08,529.99c-.15,16.53-10.94,33.08-11.96,49.03-.71,11.17,7.24,40.42,6.11,43.63-.49,1.38-22.5,11.34-26.15,13.34l-5.01-7.99-4.99,5.99c-5.96-14.87-9.6-39.93-9.98-56.01l3.98,2.01c-3.61,12.45,3.83.86,3.97,2.01.76,5.89,1.41,39.55,4.04,42,1.03.96,24.5-.86,25.98-7.02.39-1.62-3.98-.5-3.98-2.33.04-27.14,6.63-54.79-28.01-38.66l18.38-10.64c5.27-1.53,6.63-3.24,8.57,2.66l5.02-3.12,10.03-32.9c1.09-.11,2.79-1.81,4-2Z"/><path class="uuid-dcd032da-6822-48bb-b0ad-7d658387498d" d="M152.08,701.99c6.96-13.23,39.33-35.57,55.99-39.99-3.69,12.19-15.95,14.52-20.82,28.15-5.32,14.88-2.92,49.98-21.18,58.82-9.38,4.54-29.61-37.28-27.82-40.79.35-.67,11.79-5.07,13.83-6.2-11.7,22.26,12.88,47.09,23.49,22.49,4.43-10.27,1.42-29.95,8.51-40.46-11.54.58-18.49,14.3-25.95,18.86-1.93,1.18-5.59-1.13-6.05-.88Z"/><path class="uuid-dcd032da-6822-48bb-b0ad-7d658387498d" d="M207.34,262.76c-6.45-4.01-51.98-40.8-53.03-44.15-1.76-5.65,15.1-29.07,19.21-30.32,8.09-2.46,39.45,26.21,41.5,31.75,4.35,11.75-5.6,31.56.93,44.84l-4.84,3.11c-1.28-.13-2.46-4.41-3.76-5.22ZM210.07,253.97c9.78-39.49-13.98-37.37-32.97-61.98l-16.09,25.93,49.06,36.05Z"/><path class="uuid-dcd032da-6822-48bb-b0ad-7d658387498d" d="M440.08,407.99c-.41.11-.46,7.48-5.95,5.97-2.09-.57-10.87-21.36-25.06-20.16-19.71,1.66-34,48.53-9.88,12.23,4.27-1.73,6.27,3.71,6.89,3.96l-18,34c-1.8.13-5.25,2.69-8,2-1.54-5.28-2.39-10.68-4-16,1.38-4.46,2.29-9.72,4-14,15.01-37.56,35.8-40.11,60-8ZM386.07,422h-3.97s.01,5.99.01,5.99l3.96-5.99Z"/><path class="uuid-dcd032da-6822-48bb-b0ad-7d658387498d" d="M64.08,553.99l-3.98,1.99-8.03-43.97c11.68.54,28.67-10.22,39.28-9.92,13.42.38,18.5,36.73,16.72,46.39-1.08,5.84-42.27,21.1-39.99,5.52,13.27-.05,20.23-6.9,33.82-6.17l-4.84-39.86-36.67,8.33,3.7,37.7Z"/><path class="uuid-dcd032da-6822-48bb-b0ad-7d658387498d" d="M830.08,695.99c-8.92-8.79-31.26,16.1-19.95,25.98,1.76.72,28.24-17.82,19.95-25.98,2.65,3.54,11.55,2.69,7.52,11.56l-26.22,20.19-33.29-35.75c7.4.2,12.82,7.19,14,8,.26.18-.24,3.79,1.86,5.07,8.45,5.18,11.97-3.06,16.14-7.07,2.28-2.2,8.28-4.67,7.81-8.7-7.2-5.53-14.48-19.67-23.75-16.31-1.03.37-15.72,13.96-16.07,15-19.43.67,18.54-21.78,20.48-21.7,9.58.39,25.84,22.1,31.52,29.7Z"/><path class="uuid-dcd032da-6822-48bb-b0ad-7d658387498d" d="M246.08,311.99c-2.26-4.63-13.49-24.47-3.12-23.91,2.59.14,41.59,26.98,42.98,29.18,1.97,3.13,6.09,39.51,5.96,43.8-.09,3.03.54,12.98.32,13.63-.87,2.5-3.94,1.02-4.14,1.31-5.24-34.37.87-62.96-39.99-73.98,8.07,15.28,15.22,45.19-2.01,9.98Z"/><path class="uuid-dcd032da-6822-48bb-b0ad-7d658387498d" d="M852.08,623.99c1.01-1.92-.92-7.83,3.04-11.96,9.34-9.72,33.96,1.46,41.19,10.98-15.76,49.89-22.19,23.28-45.58,23.49-5.12.05-18.66,10.8-22.64,7.47s21.6-27.76,23.99-29.99c-3.41,6.47-6.71,13.42-9.99,19.99l31.12,3.96,16.33-25.03-26.67-10.78c-5.19,11.58-5.34,6.78-10.79,11.86Z"/><path class="uuid-dcd032da-6822-48bb-b0ad-7d658387498d" d="M92.08,365.99c16.46,10.6,28.18,33.84,39.97,49.04l-3,3.03-46.73-6.31,1.79-49.76c7.1-2.43,5.63,3.85,5.96,4l-3.13,40.13,36.16,7.82c-3.5-18.84-29.67-30.39-31.03-47.95Z"/><path class="uuid-dcd032da-6822-48bb-b0ad-7d658387498d" d="M332.08,323.99c-10.99-23.6,22.33-24.84,34.02-19.02,5.62,2.8,13.43,44.73,19.93,52.08l-5.95.93c-10.53-19.55-9.72-55.91-40-47.98,6.69,8.75,5.96,19.98,8,29.98-1.9-8.26-14.08-11.88-16-16Z"/><path class="uuid-dcd032da-6822-48bb-b0ad-7d658387498d" d="M620.08,551.99c-.77,2.12-.06,5.72-2,8-14.73-13.48-53.22-19.75-72.77-17.77-7.85.79-29.19,9.69-32.62,9.46-24.82-1.67,36.08-17.94,46.28-17.73,20.78.44,41.87,11.11,61.11,18.04Z"/><path class="uuid-dcd032da-6822-48bb-b0ad-7d658387498d" d="M630.23,197.9c2.2,1.3,30.74-3.48,15.86-13.89,11.22-9.51,16.46,31.99,17.17,38.03l-27.27,5.12-17.87-44.22,2.93-2.93c5.64,1.42,8.3,17.37,9.18,17.89ZM654.06,197.99c-3.07-2.36-29.49,8.11-12.78,19.86s18.51-15.45,12.78-19.86Z"/><path class="uuid-dcd032da-6822-48bb-b0ad-7d658387498d" d="M428.08,553.99c7.49,25.25,54.54-11.97,75.04-4l2.95,3.97c-26.74-1.35-71.93,34.99-87.99,4.03,1.58-.54.36-1.55,10-4Z"/><path class="uuid-dcd032da-6822-48bb-b0ad-7d658387498d" d="M482.07,573.98l1.22-6.17c84.39-32.42,78.24-.61-1.22,6.17Z"/><path class="uuid-dcd032da-6822-48bb-b0ad-7d658387498d" d="M460.08,421.99c-10.62,5.51-9.8,7.24-14,16-.67,1.39-3.11.5-4.08,6.99-.06.4,6.73,1.84,4.09,7-8.91-.56-15.59-1.32-14.01,10.01-2.63,1.07-23.42,31.85-28,38,9.22-22.2,32.49-75.91,56-78Z"/><path class="uuid-dcd032da-6822-48bb-b0ad-7d658387498d" d="M866.08,727.99c-5.41.39-16.42-14.06-16.06-16.95.18-1.48,18.76-21.4,20.11-22.05,21.34-10.17,29.8,27.64,1.95,34.99,1.09-1.37,13.65-20.12,13.7-21.39.1-2.78-8.02-10.62-8.7-10.57-1.42.1-17.97,20.5-18.27,21.89-1.4,6.54,7.55,7.87,7.27,14.07Z"/><path class="uuid-dcd032da-6822-48bb-b0ad-7d658387498d" d="M840.08,685.99c-1.96-1.76-9.21-.87-7.77-8.58,12.37-9.33,10.23-32.78,27.55-18.21,14.25,11.99-6.97,33.34-14.68,32.92-1.83-.1-.91-4.04-1.11-4.13,33.5-24.87,2.7-39.66-4-2Z"/><path class="uuid-dcd032da-6822-48bb-b0ad-7d658387498d" d="M496.08,265.99c33.63-.14,3.66,40.17-6.43,39.65-27.7-1.42-11.8-27.57,2.43-35.65l-11.52,22.7,7.38,6.45c13.37,1.18,25.87-26,8.15-33.14Z"/><path class="uuid-dcd032da-6822-48bb-b0ad-7d658387498d" d="M96.37,299.7c-5.77-10.42,19.89-34.09,28.84-17.7,10.31,18.88-20.72,32.38-28.84,17.7ZM112.05,280.03c-8.88-1.18-8.91,24.23,2.76,18.07,6.9-3.65,5.65-14.73-2.76-18.07Z"/><path class="uuid-dcd032da-6822-48bb-b0ad-7d658387498d" d="M944.08,387.99c19.51,10.17,20.97,65.36-8,74,19.43-20.62,25.75-54.97,0-74,2.18.4,6.83-.61,8,0Z"/><path class="uuid-dcd032da-6822-48bb-b0ad-7d658387498d" d="M788.08,763.96c5.2-3,43.14-37.73,45.99-26.94-10.72,13.82-27.15,27.66-45.99,26.94Z"/><path class="uuid-dcd032da-6822-48bb-b0ad-7d658387498d" d="M254.08,335.99c.75.52,4.07-1.33,6.17,1.23,1.61,1.96,13.47,44.53,13.83,48.77.28,3.36,1.91,9.46-3.97,7.99l-16.03-57.99Z"/><path class="uuid-dcd032da-6822-48bb-b0ad-7d658387498d" d="M610.08,393.99l-5.99-19.98c27.62-3.85,29.27,2.74,33.99,27.98-9.4-5.31-9.75-16.84-12.03-25.98-3.25,7.73-9.06-.53-11,.03-2.19.64,5.99,10.93-4.95,1.95-2.11,5.27,4.27,11.66,4.11,14.9-.08,1.68-4.11.89-4.14,1.1Z"/><path class="uuid-dcd032da-6822-48bb-b0ad-7d658387498d" d="M532.08,399.99c-20.67,10.58-50,22.01-54,48-2.62-.26-5.37.21-8,0,16.65-25.47,29.04-45.95,62-48Z"/><path class="uuid-dcd032da-6822-48bb-b0ad-7d658387498d" d="M740.08,705.99c-8.47,3.99-19.41-1.33-17.98-4.97,6.06-2.34,20.28-15.83,24.41-17.55,9.72-4.03,6.14-.47,7.57,2.52l-23.98,15.03,9.98,4.97Z"/><polygon class="uuid-dcd032da-6822-48bb-b0ad-7d658387498d" points="738.08 486.01 735.45 489.66 674.1 470.01 738.08 486.01"/><path class="uuid-dcd032da-6822-48bb-b0ad-7d658387498d" d="M444.08,407.99c3.24-16.17,42.88-8.94,45.98,1.03,1.45,4.65-3.75,2.56-3.98,2.97-10.94-14.77-27.91-7.31-42-4Z"/><path class="uuid-dcd032da-6822-48bb-b0ad-7d658387498d" d="M643.79,160.28l4.27,13.71c-7.6-13.68-19.46,3.82-31.96,1.99-4.54-3.88,24.16-15.99,27.69-15.7Z"/><path class="uuid-dcd032da-6822-48bb-b0ad-7d658387498d" d="M762.08,727.99c15.37-30.73-27.4,6.72-40,4,7.94-6.77,43.02-32.42,47.66-12.56,2.28,9.74-3.29,6.92-7.66,8.56Z"/><path class="uuid-dcd032da-6822-48bb-b0ad-7d658387498d" d="M590.08,349.99c10.92-5.27,1.5,19.88,4.01,31.04-10.94-1.06-19.75-1.89-28.01-9.04l23.97,6.01.03-28.01Z"/><path class="uuid-dcd032da-6822-48bb-b0ad-7d658387498d" d="M612.08,223.99c-3.7,4.57-25.99,22.61-30.76,22.16-2.06-.53-1.03-4.02-1.24-4.16,10.74-3.4,19.16-21.03,32-18Z"/><path class="uuid-dcd032da-6822-48bb-b0ad-7d658387498d" d="M556.06,327.98c-9.07-9.39,10.6-33.33,19.05-39.95l-19.05,39.95Z"/><path class="uuid-dcd032da-6822-48bb-b0ad-7d658387498d" d="M606.08,207.99l-34,26c-.98-9.97,22.88-29.04,34-26Z"/><path class="uuid-dcd032da-6822-48bb-b0ad-7d658387498d" d="M682.1,235.98c-4.25-4.28,10.45-12.87,13.2-13.77,28.37-9.35-8.48,18.52-13.2,13.77Z"/><path class="uuid-dcd032da-6822-48bb-b0ad-7d658387498d" d="M758.08,727.99c-.68,11.67-22.41,17.34-32,16,.25-.12.01-4.11,1.9-5.13,4.11-2.23,8.97,1.42,13.16-.64,6.51-3.21,8.2-6.32,16.94-10.23Z"/><path class="uuid-dcd032da-6822-48bb-b0ad-7d658387498d" d="M636.08,142.01l-37.99,21.96c5.75-13.09,25.48-18.66,37.99-21.96Z"/><path class="uuid-dcd032da-6822-48bb-b0ad-7d658387498d" d="M574.08,463.99c3.99,7.47-22.63,18.53-28,20l-3.99-3.98c6.72,1.93,5.69-3.83,5.99-4.02,1.61-1,5.97-.9,8-2,5.73-3.11,11.66-8.34,18-10Z"/><path class="uuid-dcd032da-6822-48bb-b0ad-7d658387498d" d="M572.08,173.99l2.01,3.96c-11.38,5.06-20.72,12.6-32.01,18.04-.75.36-1.37,1.4-2,2-.34.33-1.63-.33-2,0l34-24Z"/><path class="uuid-dcd032da-6822-48bb-b0ad-7d658387498d" d="M720.08,173.99l-34,10c15.81-5.85,14.96-8.35,34-10Z"/><path class="uuid-dcd032da-6822-48bb-b0ad-7d658387498d" d="M398.08,469.99c-3.04,10.39-11.97,20.45-22,24,1.11-2.56,10.82-18.84,12-20,.92-.91,8.01-2.98,10-4Z"/><path class="uuid-dcd032da-6822-48bb-b0ad-7d658387498d" d="M212.08,417.99c-.09,2.16-1.47,4.03-2,6l-34-5.98c11.86.67,24.18-1.01,36-.02Z"/><path class="uuid-dcd032da-6822-48bb-b0ad-7d658387498d" d="M626.08,327.99c-.13.12,3.9.88,1.98,2.94-6.23,6.69-15.46,9.79-17.98,21.06-6.16-9.75,7.68-22.56,16-24Z"/><path class="uuid-dcd032da-6822-48bb-b0ad-7d658387498d" d="M792.09,200v5.98s-24,0-24,0c.68-10.35,16.67-4.67,24-5.98Z"/><path class="uuid-dcd032da-6822-48bb-b0ad-7d658387498d" d="M551.87,770.21l.2,5.77c-3.08,2.25-22.32-7.36-21.97-13.97l21.77,8.21Z"/><path class="uuid-dcd032da-6822-48bb-b0ad-7d658387498d" d="M746.07,206c.84,4.04-2.01,4.72-4.6,6.37-21.49,13.7-25.27-7.63,4.6-6.37Z"/><path class="uuid-dcd032da-6822-48bb-b0ad-7d658387498d" d="M684.08,123.99c4.51.68,6.57,1.88,12,.02l-34.97,12.01,18.97-12.03c1.29.18,2.72-.19,4,0Z"/><path class="uuid-dcd032da-6822-48bb-b0ad-7d658387498d" d="M520.08,421.99c-14.54,5.82-23.49,17.4-34,28h-2c6.4-14.38,21.37-28.01,36-28Z"/><path class="uuid-dcd032da-6822-48bb-b0ad-7d658387498d" d="M838.08,204.01l-2.99,4.01c-34.76-.55-23.59-13.63,2.99-4.01Z"/><path class="uuid-dcd032da-6822-48bb-b0ad-7d658387498d" d="M656.07,706c-.55,8.66-26.61,12.51-22,2l22-2Z"/><path class="uuid-dcd032da-6822-48bb-b0ad-7d658387498d" d="M880.06,156.03l-1.01,3.99c-29.82-7.61-27.3-23.18,1.01-3.99Z"/><path class="uuid-dcd032da-6822-48bb-b0ad-7d658387498d" d="M766.07,648c2.52,2.26-12.41,17.83-17.98,13.97-3.12-2.7,14.04-17.5,17.98-13.97Z"/><path class="uuid-dcd032da-6822-48bb-b0ad-7d658387498d" d="M700.07,692l-1.27,6.13-18.71,3.85c-1.84-6.42,18.69-10.77,19.97-9.97Z"/><path class="uuid-dcd032da-6822-48bb-b0ad-7d658387498d" d="M562.07,704.02c.65,9.35-23.14.6-21.96-3,2.2-6.72,18.35,2.78,21.96,3Z"/><path class="uuid-dcd032da-6822-48bb-b0ad-7d658387498d" d="M882.07,221.97c-3.27,2.77-26.13-8.35-21.97-11.98,2.8-.99,26.94,7.76,21.97,11.98Z"/><polygon class="uuid-dcd032da-6822-48bb-b0ad-7d658387498d" points="519.75 686.28 520.07 691.97 515.52 691.56 502.1 678 519.75 686.28"/><path class="uuid-dcd032da-6822-48bb-b0ad-7d658387498d" d="M664.07,246c3.26,2.8-12.34,15.13-15.98,11.97-4.08-3.54,11.65-15.69,15.98-11.97Z"/><polygon class="uuid-dcd032da-6822-48bb-b0ad-7d658387498d" points="712.07 276.01 682.08 281.98 682.1 275.99 712.07 276.01"/><path class="uuid-dcd032da-6822-48bb-b0ad-7d658387498d" d="M918.07,241.97c-1.47,1.39-18.88-6.56-17.98-11.97,5.57-4.33,21.11,8.99,17.98,11.97Z"/><path class="uuid-dcd032da-6822-48bb-b0ad-7d658387498d" d="M590.08,193.99c-7.51,5.95-13.95,13.86-24,16,5.52-5.17,13.37-18.64,24-16Z"/><path class="uuid-dcd032da-6822-48bb-b0ad-7d658387498d" d="M736.07,672c3.1,2.68-11.91,14.03-15.98,11.97-2.73-6.98,13.29-14.29,15.98-11.97Z"/><path class="uuid-dcd032da-6822-48bb-b0ad-7d658387498d" d="M218.08,297.99c16.95-10.16,31.08-1.62,6,4-2.36-1.37-4.93-3.42-6-4Z"/><path class="uuid-dcd032da-6822-48bb-b0ad-7d658387498d" d="M442.07,677.97c-2.41,2.51-11.39-9.48-12-10.98-6.97-17.31,15.64,7.19,12,10.98Z"/><rect class="uuid-dcd032da-6822-48bb-b0ad-7d658387498d" x="595.3" y="702.52" width="5.63" height="20.37" transform="translate(-185.14 1214.91) rotate(-82.66)"/><path class="uuid-dcd032da-6822-48bb-b0ad-7d658387498d" d="M230.08,429.99c.15.24,5.47-.72,4,4-.19-.21-3.78-3.82-4-4-3.86-3.19-11.6-5.16-14-12,15.06,2.01,8.53,2.95,14,12Z"/><polygon class="uuid-dcd032da-6822-48bb-b0ad-7d658387498d" points="499.56 734.4 497.12 739.97 484.1 726 499.56 734.4"/><path class="uuid-dcd032da-6822-48bb-b0ad-7d658387498d" d="M950.07,269.97c-2.15,2.31-14.59-9.42-11.97-13.98,2.15-2.31,14.59,9.42,11.97,13.98Z"/><path class="uuid-dcd032da-6822-48bb-b0ad-7d658387498d" d="M978.07,253.97c-2.57,2.85-15.27-10.57-6.95-11.98,5.16-.87,8.83,9.89,6.95,11.98Z"/><path class="uuid-dcd032da-6822-48bb-b0ad-7d658387498d" d="M472.08,653.99c-.3-.45-5.95,1.67-3.99-3.99,5.58-2.03,3.63,3.78,3.99,3.99,4.8,2.75,13.67,4.2,13.99,11.99-9.02,1.05-10.61-6.88-13.99-11.99Z"/><path class="uuid-dcd032da-6822-48bb-b0ad-7d658387498d" d="M672.08,277.96c-6.27.47-15.55-1.42-13.99-9.96l13.99,9.96Z"/><path class="uuid-dcd032da-6822-48bb-b0ad-7d658387498d" d="M514.08,461.99l17.99,8.03-3.99,1.97c-7.64-3.79-7.06,3.31-14-10Z"/><path class="uuid-dcd032da-6822-48bb-b0ad-7d658387498d" d="M500.08,467.99c7.01-2.11,12.67,3.08,8,10-6.46-4.41-4.79-5.16-8-10Z"/><path class="uuid-dcd032da-6822-48bb-b0ad-7d658387498d" d="M130.08,327.99c-.24,2.63.17,5.36,0,8-.62.23-1.24,3.83-6,4l2-12c1.33.02,2.67-.01,4,0Z"/><path class="uuid-dcd032da-6822-48bb-b0ad-7d658387498d" d="M566.08,501.99c.63-.41,2.8-9.15,11.99-5.99,1.38,6.31-7.3,4.93-9.99,7.99l-2-2Z"/><rect class="uuid-dcd032da-6822-48bb-b0ad-7d658387498d" x="627.6" y="178.31" width="14.84" height="4.69" transform="translate(-22.45 120.46) rotate(-10.65)"/><polygon class="uuid-dcd032da-6822-48bb-b0ad-7d658387498d" points="921.87 605.79 917.1 606 916.04 601.05 924.06 594 921.87 605.79"/><path class="uuid-dcd032da-6822-48bb-b0ad-7d658387498d" d="M466.07,705.97c-1.92,1.94-11.29-6.24-9.96-9.99.53-.5,11.85,5.66,9.96,9.99Z"/><path class="uuid-dcd032da-6822-48bb-b0ad-7d658387498d" d="M577.21,511.21c-.05.37-5.37,1.73-3.11,6.77.35.78,8.6-2.92,5.98,5.99-8.95-.97-9.72-11.85-3.95-16.96,8.14-5.47,1.45,1.3,1.08,4.2Z"/><rect class="uuid-dcd032da-6822-48bb-b0ad-7d658387498d" x="578.1" y="396" width="5.97" height="3.97"/><path class="uuid-dcd032da-6822-48bb-b0ad-7d658387498d" d="M730.08,171.99l5.99,1.97c-3.98.13-8-.09-11.99.03.94-2.9,5.34-1.47,6-2Z"/><path class="uuid-dcd032da-6822-48bb-b0ad-7d658387498d" d="M584.06,517.97c-2.34,3.57-2.6-9.53,0-5.98.2.27.24,5.62,0,5.98Z"/><path class="uuid-dcd032da-6822-48bb-b0ad-7d658387498d" d="M520.07,580.01c3.57,2.34-9.53,2.6-5.98,0,.27-.2,5.62-.24,5.98,0Z"/><rect class="uuid-dcd032da-6822-48bb-b0ad-7d658387498d" x="592.11" y="510" width="1.95" height="3.97"/><rect class="uuid-dcd032da-6822-48bb-b0ad-7d658387498d" x="716.1" y="654.01" width="3.97" height="1.95"/><path class="uuid-dcd032da-6822-48bb-b0ad-7d658387498d" d="M484.08,239.99c2.83-3.15,19.35-11.39,19.89-15.23.69-4.87-7.74-7.25-8.54-8.59-9.51-15.9,15.02.58,15.74,1.78,6.09,10.33-42.21,48.07-47.06,61.15l-12.04-6.14c-5.01,8.8-10.95,17.51-15.46,26.55-2.17,4.34-6.74,29.82-11.63,20.49-5.98-11.4,25.66-50.97,26.59-57.28.46-3.1-5.67-31.27-3.5-34.73,25.72,2.43,25.04,6.82,43.98-12.01-2.04,12.74-5.02,11.67-11.98,20-1.5,1.79-13.51,9.29-14,10,1.52-3.26-.65-11.31-5.99-9.99v11.99c1.55-1.53,5.85-1.71,5.99-2-.62.91-2.58,11.52-3.98,13.98,7.74-10.68,5.12,2.14,6.97,2.01,1.61-.12,12.3-18.97,15.01-21.99ZM454.08,234v21.97s2.01,0,2.01,0v-21.97s-2.01,0-2.01,0ZM460.07,264c-2.02-2.04-8.02,3.91-5.97,5.97s8.02-3.91,5.97-5.97Z"/><path class="uuid-9697a43c-019b-40e7-9a76-bb918e0f299c" d="M344.08,575.99c.66-.05,1.34.03,2,0h-2Z"/><path class="uuid-dcd032da-6822-48bb-b0ad-7d658387498d" d="M704.08,337.99l3.99,3.97c-12.14-3.62-19.68,1.27-29.99,2.03-13.42.98,18.02-16.23,26-6Z"/><polygon class="uuid-dcd032da-6822-48bb-b0ad-7d658387498d" points="730.09 344 727.14 347.98 710.1 342.02 730.09 344"/><path class="uuid-dcd032da-6822-48bb-b0ad-7d658387498d" d="M338.08,475.99c8.08,4.99,21.84,20.58,14,28-2.02-3.04-4.44-3.64-8-10s-4.48-15.07-6-18Z"/><path class="uuid-dcd032da-6822-48bb-b0ad-7d658387498d" d="M300.08,431.99c.99-.8-3.18-8.37,5.97-6l4.03,22c-2.67.04-5.33-.03-8,0l-2-16Z"/><path class="uuid-dcd032da-6822-48bb-b0ad-7d658387498d" d="M440.08,485.99c.8,6.74-.6,10.59-8,10,.4-.39-.9-5.97.91-8.07,2.49-2.9,6.63-1.53,7.09-1.93Z"/><path class="uuid-dcd032da-6822-48bb-b0ad-7d658387498d" d="M402.08,501.99c-.33.42-2.17,8.17-4,10-3.1-.23-4.67-1.76-6-2l10-8Z"/><path class="uuid-dcd032da-6822-48bb-b0ad-7d658387498d" d="M294.08,447.99c-1.33,0-2.67-.02-4,0h4Z"/><path class="uuid-dcd032da-6822-48bb-b0ad-7d658387498d" d="M590.08,429.99c-12.1,14.73-20.76,2.16-22.04,2.04-3.91-.36-11.91,11.68-15.96-4.04,12.2,1.32,23.31-1.9,38,2Z"/><path class="uuid-dcd032da-6822-48bb-b0ad-7d658387498d" d="M798.08,683.99l5.98,2.97-7.01,7.01c-5.53.69-2.4-3.91-.97-5.98,2.48-1.21,1.45-2.99,2-4Z"/><path class="uuid-dcd032da-6822-48bb-b0ad-7d658387498d" d="M796.08,687.99c-25.26,12.3,15.35-28.4,2-4-2.44.98-1.51,3.3-2,4Z"/><path class="uuid-dcd032da-6822-48bb-b0ad-7d658387498d" d="M804.08,695.99c.81-.68,1.76-8.86,6.98-8.02l-2.98,8.02c-1.09-.3-2.75.21-4,0Z"/><path class="uuid-dcd032da-6822-48bb-b0ad-7d658387498d" d="M894.07,548.01c-33.76,16.02-70.08,27.57-105.98,37.95,33.13-16.81,70.11-28.33,105.98-37.95Z"/><polygon class="uuid-dcd032da-6822-48bb-b0ad-7d658387498d" points="858.07 542 814.5 561.41 764.1 577.98 807.99 558.89 858.07 542"/><rect class="uuid-dcd032da-6822-48bb-b0ad-7d658387498d" x="754.66" y="536.47" width="149.61" height="4.48" transform="translate(-133.35 312.42) rotate(-19.78)"/><path class="uuid-dcd032da-6822-48bb-b0ad-7d658387498d" d="M820.07,588.01c-19.25,10.48-40.67,18.48-61.97,23.95,18.75-11.45,41.04-17.73,61.97-23.95Z"/><path class="uuid-dcd032da-6822-48bb-b0ad-7d658387498d" d="M910.08,524.01c-11.82,7.72-28.15,13.33-41.98,15.96.3-5.9,13.15-6.98,18.15-8.83,7.78-2.88,15.26-6.93,23.84-7.14Z"/><path class="uuid-dcd032da-6822-48bb-b0ad-7d658387498d" d="M864.08,572.01c-9.38,8.01-24.22,11.32-36,13.95,9.37-8.01,24.21-11.32,36-13.95Z"/><path class="uuid-dcd032da-6822-48bb-b0ad-7d658387498d" d="M882.07,566.01c-1.73,4.04-10.04,5.78-13.99,5.95,2.26-5.32,8.88-6.3,13.99-5.95Z"/><rect class="uuid-dcd032da-6822-48bb-b0ad-7d658387498d" x="822.1" y="586.01" width="3.97" height="1.95"/><path class="uuid-dcd032da-6822-48bb-b0ad-7d658387498d" d="M882.07,338.01l-46.63,12.33-51.34,9.62c31.23-11.29,64.81-18.73,97.98-21.95Z"/><path class="uuid-dcd032da-6822-48bb-b0ad-7d658387498d" d="M868.08,352.01c-22.16,10.83-47.68,16.43-71.99,19.95,22.94-9.43,47.46-15.68,71.99-19.95Z"/><path class="uuid-dcd032da-6822-48bb-b0ad-7d658387498d" d="M882.07,360.01c-19.58,10.09-42.11,15.57-63.98,17.95,20.72-7.01,42.06-15.1,63.98-17.95Z"/><path class="uuid-dcd032da-6822-48bb-b0ad-7d658387498d" d="M876.07,374.01l-19.26,7.7-24.72,6.26c.27-5.84,14.16-6.74,18.78-8.19,8.18-2.57,16.33-6.23,25.19-5.77Z"/><path class="uuid-dcd032da-6822-48bb-b0ad-7d658387498d" d="M884.07,372.01c3.57,2.34-9.53,2.6-5.98,0,.27-.2,5.62-.24,5.98,0Z"/><path class="uuid-dcd032da-6822-48bb-b0ad-7d658387498d" d="M884.07,444.01c-25.43,11.7-51.73,22.12-77.98,31.96,6.84-8.92,24.1-14.29,34.43-18.54,14.05-5.77,28.17-11.92,43.54-13.42Z"/><path class="uuid-dcd032da-6822-48bb-b0ad-7d658387498d" d="M836.07,450.01c-16.07,6.11-32.48,14.32-49.98,15.95l21.47-9.49,28.51-6.46Z"/><path class="uuid-dcd032da-6822-48bb-b0ad-7d658387498d" d="M832.07,476.01c-17.09,10.31-36.97,17.87-55.98,23.96,15.88-11.34,37.47-18.23,55.98-23.96Z"/><polygon class="uuid-dcd032da-6822-48bb-b0ad-7d658387498d" points="834.07 440 830.1 444.91 808.1 449.96 834.07 440"/><path class="uuid-dcd032da-6822-48bb-b0ad-7d658387498d" d="M790.08,456.01c1.47,1.39-5.83,6-8,3.95-1.47-1.39,5.83-6,8-3.95Z"/><path class="uuid-dcd032da-6822-48bb-b0ad-7d658387498d" d="M854.07,434.01c3.57,2.34-9.53,2.6-5.98,0,.27-.2,5.62-.24,5.98,0Z"/><path class="uuid-dcd032da-6822-48bb-b0ad-7d658387498d" d="M868.07,428.01c.25,3.23-5.59,3.49-7.97,3.96-.37-3.12,5.4-3.48,7.97-3.96Z"/><rect class="uuid-dcd032da-6822-48bb-b0ad-7d658387498d" x="838.1" y="438.01" width="3.97" height="1.95"/><rect class="uuid-dcd032da-6822-48bb-b0ad-7d658387498d" x="802.1" y="450.01" width="3.97" height="1.95"/><rect class="uuid-dcd032da-6822-48bb-b0ad-7d658387498d" x="776.1" y="460.01" width="3.97" height="1.95"/><rect class="uuid-dcd032da-6822-48bb-b0ad-7d658387498d" x="792.1" y="454.01" width="3.97" height="1.95"/><polygon class="uuid-dcd032da-6822-48bb-b0ad-7d658387498d" points="799.08 451.99 800.08 452.99 799.08 453.99 799.08 451.99"/><polygon class="uuid-dcd032da-6822-48bb-b0ad-7d658387498d" points="845.08 435.99 846.08 436.99 845.08 437.99 845.08 435.99"/><rect class="uuid-dcd032da-6822-48bb-b0ad-7d658387498d" x="712.1" y="558.01" width="3.97" height="1.95"/></g><g id="uuid-776edc6e-7d3d-4702-85d0-2407763761bc"><path class="uuid-989a01a4-4776-4ffb-aeca-89178d2164de" d="M656.08,381.99l10,33.97c-9.56,4.54-22.7-9.51-24-9.97l-1.98-31.99c8.54-.13,10.61,3.77,15.98,7.99Z"/><path class="uuid-989a01a4-4776-4ffb-aeca-89178d2164de" d="M936.08,387.99c25.75,19.03,19.43,53.38,0,74-2.04.61-4,1.39-6,2-1.15.35-8.22-1.95-14.3.24-28.51,10.29-140.37,68.53-158.34,69.06-15.28.46-45.51-17.46-59.36-25.28l64.48,13.55c25.72-16.9,167.88-60.82,178.44-77.65,12.37-19.71-1.09-56.85-29.38-43.38l-153.54,53.46h-2c-3.28-6.17-2.49-14.51-12-11.98l4,5.95-16-5.95,9.99,1.96c-5.71-10.89,5.16-3.81,12.53-6.1,52.18-16.21,123.81-30.5,171.48-51.89,3.78-1.03,7.09,1.46,10,2Z"/><path class="uuid-989a01a4-4776-4ffb-aeca-89178d2164de" d="M346.08,447.99c.85-.07,5.46,3.91,6.03.97l-35.98-70c23.94,6.35,37.36,32.14,41.5,54.63,1.67,9.1-1.43,38.46.45,44.39,1.43,4.53,7.99,8.04,12.02,17.05.27.61-10.52,1.43,1.98,8.95,4.46,2.68,14.54,5,20,6,1.33.24,2.9,1.77,6,2,14.26,1.05,24.51-6.83,34-16,7.4.59,8.8-3.26,8-10,2.89-2.49,3.95-6.53,8-6,1.22,2.56,6.42,11.71,8,14-.54,2.13-3.05,2.88-4,4-18.03,3.2-12.18,11.48-14.47,13.55-9.55,8.63-20.49,13.31-33.52,12.47l7.97,3.95c-13.39,3.92-33.55-1.81-44.57-9.86-3.01-2.2-2.62-14.09-11.41-8.11-1.04-1.23-2.54-1.94-4-4-.31-.44.31-1.54,0-2,7.84-7.42-5.92-23.01-14-28-9.88-18.99-14.76-7.16-32-8-2.65-.13-5.36.19-8,0-6.53-.47-11.89.12-14,0-.66-.04-1.34.04-2,0-.32-.02-1.05-3.62-4.96-3.96-9.77-.84-35.39,3.24-39.04-2.04s-.53-8.13,4-12c.53-.46,3.83,1.91,10-4-1.08,7.93,3.82,1.84,6,2,11.73.88,18.7.17,30,0,.67,0,1.33,0,2,0,1.33-.02,2.67,0,4,0,2.67-.02,5.33.03,8,0s5.33.04,8,0c11.99-.16,24.11,1.02,36,0Z"/><path class="uuid-989a01a4-4776-4ffb-aeca-89178d2164de" d="M532.08,399.99c2.22-.14,5.45-3.26,9.98.03-15.78,5.06,9.29,12.9,16.94,14.05,16.25,2.43,32.87-1.56,49.08-.08-.11,8.5,13.11,1.47,10,12-1.87-.05-18.17,3.04-20,6-1.6-.9-5.74-1.4-8-2-14.69-3.9-25.8-.68-38-2-1.96-.21-4.03.16-6,0-5.74-.48-12.97-5.99-26-6-14.63-.01-29.6,13.62-36,28-2.04.12-4.52-1.86-6-2,4-25.99,33.33-37.42,54-48Z"/><path class="uuid-989a01a4-4776-4ffb-aeca-89178d2164de" d="M246.71,556.6c-12.01,17.16-10.35,25.87-34.62,9.4-5.55,47.26-32.26,9.93-35.01,10.03-7.21.26-2.92,32.42-18.99,29.94.64-29.08,11.57-62.74,38.92-27.98,13.31-49.28,28.38-12.97,34.03-14.01,4.23-.78,6.53-20.76,19.95-18.11,14.85,2.93-3.76,9.99-4.28,10.73Z"/><path class="uuid-989a01a4-4776-4ffb-aeca-89178d2164de" d="M678.08,349.99c-7.26,13.72-19.34,19.39-33.16,10.12-11.16-28.19,86.73-49.52,91.4-44.94,4.59,4.49.05,11.88-4.24,14.83-8.57,5.88-18.79,4.54-28,8-7.98-10.23-39.42,6.98-26,6-.36,1.63.53,5.01,0,6Z"/><path class="uuid-989a01a4-4776-4ffb-aeca-89178d2164de" d="M332.08,323.99c1.92,4.12,14.1,7.74,16,16,.92,4.49-1.9,10.91,1.89,15.18,4.45,3.73,18.35-10.33,28.11,2.82,3.21,4.33-7.02,15.43,16,10l.16,7.07c-29.02,22.63-25.39-7.93-28.17-11.08s-22.45,12.68-30.18,1.19l-4.87-27.19-26.93,14c.15-16.06,14.89-23.49,27.99-27.99Z"/><path class="uuid-989a01a4-4776-4ffb-aeca-89178d2164de" d="M428.08,553.99c-9.64,2.45-8.42,3.46-10,4-8.73,2.98-56,21.63-60.01,17.99-1.73-10.74,10.56-16.19,18.65-20.35,8.19-4.21,80.44-28.26,71.2-6.86-2.38,5.52-15.39,4.08-19.84,5.22Z"/><path class="uuid-989a01a4-4776-4ffb-aeca-89178d2164de" d="M658.08,533.99c-7.1,9.24-20.37,23.76-20,36-1.55.13-2.81,1.57-4,2-7.88,2.87-.75,6.49-7.97,5.99-.3-3.62-6.13-16.25-8.03-17.99,1.94-2.28,1.23-5.88,2-8,.85-2.34,4.64-10.15,6-12,3.59-4.88,5.72-8.19,12-10,11.36-3.27,12.09,1.36,20,4Z"/><path class="uuid-989a01a4-4776-4ffb-aeca-89178d2164de" d="M546.08,357.99c1.74,6.53,6.07,14.64,10,20l-43.91-4.97,9.15-24.88c5.2-2.02,20.32,8.78,24.76,9.86Z"/><path class="uuid-989a01a4-4776-4ffb-aeca-89178d2164de" d="M606.08,207.99c10.93,2.99,10.33,10.65,6,16-12.84-3.03-21.26,14.6-32,18-3.74-2.34-7.27-.56-8-8l34-26Z"/><path class="uuid-989a01a4-4776-4ffb-aeca-89178d2164de" d="M8.54,295.56c-10.79-21.21,40.14-6.65,39.64,5.29-.04,15.14-38.58-3.21-39.64-5.29Z"/><path class="uuid-989a01a4-4776-4ffb-aeca-89178d2164de" d="M200.08,463.99c-60.75,3.27-28.66-28.73,4-10,.04,2.66-.03,5.34,0,8-1.57-1.3-3.78,1.99-4,2Z"/><path class="uuid-989a01a4-4776-4ffb-aeca-89178d2164de" d="M42.08,621.99c-10.7-9.65,32.02-26.78,37.15-20.14,9.79,12.68-34.31,22.7-37.15,20.14Z"/><path class="uuid-989a01a4-4776-4ffb-aeca-89178d2164de" d="M306.08,292.02c10.32,19.47-47.39-5.72-39.86-18.81,2.76-7.64,38.79,16.79,39.86,18.81Z"/><path class="uuid-989a01a4-4776-4ffb-aeca-89178d2164de" d="M186.09,781.99c-4.07-4.11,9.13-39.19,23.19-28.18,9.56,7.48-17.51,33.91-23.19,28.18Z"/><path class="uuid-989a01a4-4776-4ffb-aeca-89178d2164de" d="M398.08,465.99c-.22,1.26.31,2.95,0,4-1.99,1.02-9.08,3.09-10,4-8.85-10.45-5.47-19.35-8-28,2.75.69,6.2-1.87,8-2,16.14-1.14,11.81,11.62,10,22Z"/><path class="uuid-989a01a4-4776-4ffb-aeca-89178d2164de" d="M590.08,349.99l-.03,28.01-23.97-6.01c-3.55-3.07-6.84-3.68-6-10,13.06,1.43,18.79.21,26-6,1.44-1.24-3.84-2.21,4-6Z"/><path class="uuid-989a01a4-4776-4ffb-aeca-89178d2164de" d="M912.07,592c-2.71,27.12-16.92,20.69-33.96,9.94l33.96-9.94Z"/><path class="uuid-989a01a4-4776-4ffb-aeca-89178d2164de" d="M798.08,730.01c-9,13.63-24.84,25.97-41.99,23.96,8.31-12.25,27.38-24.86,41.99-23.96Z"/><path class="uuid-989a01a4-4776-4ffb-aeca-89178d2164de" d="M282.07,626.02c3.52,5.52-28.23,28.5-33.09,22.06-6.58-8.71,28.98-28.51,33.09-22.06Z"/><path class="uuid-989a01a4-4776-4ffb-aeca-89178d2164de" d="M424.1,381.94l2.99-4.01c64.23,4.79,37.41,30.82-2.99,4.01Z"/><path class="uuid-989a01a4-4776-4ffb-aeca-89178d2164de" d="M215.36,176.7c-29.44-22.77,8.01-24.6,13.21-2.15,4.41,19.03-7.76,6.37-13.21,2.15Z"/><path class="uuid-989a01a4-4776-4ffb-aeca-89178d2164de" d="M195.53,388.51c14.54,12.4-17.41,14.06-26.09,7.64-17.72-13.1,18.84-13.82,26.09-7.64Z"/><path class="uuid-989a01a4-4776-4ffb-aeca-89178d2164de" d="M730.08,284.01c-3.81,3.3-2.75,10.75-6.38,12.68-26.64,14.13-42.84-21.09,6.38-12.68Z"/><path class="uuid-989a01a4-4776-4ffb-aeca-89178d2164de" d="M744.07,764.01c4.86,7.72-30.01,20.44-33.97,10.95-3.16-7.58,31.35-15.11,33.97-10.95Z"/><path class="uuid-989a01a4-4776-4ffb-aeca-89178d2164de" d="M757.79,136.27l-1.02,7.81-32.7,1.9c-6.42-14.1,32.49-11.27,33.72-9.71Z"/><path class="uuid-989a01a4-4776-4ffb-aeca-89178d2164de" d="M704.07,714c.67,14.07-15.51,16.57-25.97,17.98-3.23-15.5,14.53-17.42,25.97-17.98Z"/><path class="uuid-989a01a4-4776-4ffb-aeca-89178d2164de" d="M700.08,153.96l-31.97,8.02c-8.67-9.11,34.79-26.09,31.97-8.02Z"/><path class="uuid-989a01a4-4776-4ffb-aeca-89178d2164de" d="M683.62,787.58c-3.53,2.62-23.6,2.28-28.04-.09-17.32-9.27,47.03-14.02,28.04.09Z"/><path class="uuid-989a01a4-4776-4ffb-aeca-89178d2164de" d="M476.08,461.99l-8,20c-6.01-5.71-18.27,3.24-8-20,3.58-1.33,14.83.38,16,0Z"/><path class="uuid-989a01a4-4776-4ffb-aeca-89178d2164de" d="M840.08,685.99c6.7-37.66,37.5-22.87,4,2-1.56-.65-2.44-.6-4-2Z"/><path class="uuid-989a01a4-4776-4ffb-aeca-89178d2164de" d="M608.08,493.99c-.96-.56-5.64.6-6.01-.02-6.79-11.29,34.59-3.01,39.04-1.91,4.72,1.17,5.73-2.68,4.97,5.93-9.52-1.68-18.96.68-26,0-12.55-1.2-7-1.09-12-4h0Z"/><path class="uuid-989a01a4-4776-4ffb-aeca-89178d2164de" d="M590.11,486.01c.56.26,7.22-3.34,9.96-2.01-.2,11.92-37.5,5.63-29.99-3.99,18.8-8.43,18.88,5.47,20.03,6Z"/><path class="uuid-989a01a4-4776-4ffb-aeca-89178d2164de" d="M798.07,180.02c6.29,9.19-18.83,9.5-22.69,7.67-19.55-9.26,18.75-13.44,22.69-7.67Z"/><path class="uuid-989a01a4-4776-4ffb-aeca-89178d2164de" d="M722.41,193.66l-.32-7.64c52.14-8.75,9.55,19.42.32,7.64Z"/><path class="uuid-989a01a4-4776-4ffb-aeca-89178d2164de" d="M792.35,139.74c-18.49-17.94,54.5,3.65,21.69,5.48-1.12.06-20.89-4.7-21.69-5.48Z"/><circle class="uuid-989a01a4-4776-4ffb-aeca-89178d2164de" cx="231.86" cy="723.86" r="8.83"/><path class="uuid-989a01a4-4776-4ffb-aeca-89178d2164de" d="M497.72,357.6c-10.02,5.45-19.58-6.46-10.84-13.81,11.35-9.55,19.71,8.99,10.84,13.81Z"/><path class="uuid-989a01a4-4776-4ffb-aeca-89178d2164de" d="M302.07,548l-1.33,6.1-28.64,9.88c-1.62-8.62,27.93-17.24,29.97-15.98Z"/><path class="uuid-989a01a4-4776-4ffb-aeca-89178d2164de" d="M618.69,787.29c-15.64-4.96,12.69-17.2,19.38-4.27.56,6.97-15,5.66-19.38,4.27Z"/><path class="uuid-989a01a4-4776-4ffb-aeca-89178d2164de" d="M485.92,534.18c4.4,7.68-9.24,21.09-14.96,9.77-3.89-7.71,11.93-15.06,14.96-9.77Z"/><path class="uuid-989a01a4-4776-4ffb-aeca-89178d2164de" d="M244.3,196.2c6.27-4.13,16.88,7.67,9.89,12.9-10.08,7.55-16.02-8.86-9.89-12.9Z"/><path class="uuid-989a01a4-4776-4ffb-aeca-89178d2164de" d="M238.38,250.27c8.92-4.95,18.84,8.09,9.72,12.83-7.97,4.14-15.04-9.87-9.72-12.83Z"/><path class="uuid-989a01a4-4776-4ffb-aeca-89178d2164de" d="M133.44,378.24c3.75-1.42,17.02,1.2,16.64,6.71-4.22,10.83-27.81-2.47-16.64-6.71Z"/><path class="uuid-989a01a4-4776-4ffb-aeca-89178d2164de" d="M566.08,501.99l2,2c-1.81,2.06-8.85,20.8-15.99,13.99s12.19-14.81,13.99-15.99Z"/><path class="uuid-989a01a4-4776-4ffb-aeca-89178d2164de" d="M232.07,658c5.38,6.15-8.24,19.27-13.97,13.98-5.16-4.76,11.45-16.86,13.97-13.98Z"/><polygon class="uuid-989a01a4-4776-4ffb-aeca-89178d2164de" points="513.96 486.11 509.4 493.74 498.1 482 513.96 486.11"/><polygon class="uuid-989a01a4-4776-4ffb-aeca-89178d2164de" points="606.09 730 606.09 735.98 592.11 732.95 606.09 730"/><polygon class="uuid-989a01a4-4776-4ffb-aeca-89178d2164de" points="518.07 530 513.12 537.97 510.09 532.02 518.07 530"/><rect class="uuid-989a01a4-4776-4ffb-aeca-89178d2164de" x="548.1" y="404.01" width="3.97" height="1.95"/><polygon class="uuid-989a01a4-4776-4ffb-aeca-89178d2164de" points="545.08 401.99 546.08 402.99 545.08 403.99 545.08 401.99"/><path class="uuid-989a01a4-4776-4ffb-aeca-89178d2164de" d="M654.08,579.99c3.46-12.39,4.49-2.63,6.03,5.99l7.96-5.98c1.12,18.95,7.93,2.29,9,2,3.59-.97,7.06,13.56,17.02,9.99-1.57,12.32-.23,26.2,3.98,37.99-34.38-1.91-40.34-19.17-43.98-49.99Z"/><path class="uuid-989a01a4-4776-4ffb-aeca-89178d2164de" d="M654.08,493.99c14.35,4.7,60.05,9.22,26.16,21.87,2.42-6.46-25.49-16.8-30.16-17.87l4-4Z"/><path class="uuid-989a01a4-4776-4ffb-aeca-89178d2164de" d="M686.06,430.02l-5.95,7.94c-.57-8.44-17.84.76-16.02-13.97l21.96,6.02Z"/><path class="uuid-989a01a4-4776-4ffb-aeca-89178d2164de" d="M345.6,615.51c-.99,1.21-28.46,11.65-29.51,10.48-5.33-33.02-5.1-41.22,30.14-45.17,3.36,2.81,2.81,30.5-.63,34.69Z"/><path class="uuid-989a01a4-4776-4ffb-aeca-89178d2164de" d="M566.08,277.99c-5.09,5.79-22.54,1.41-25.09-6.06-.96-2.81,8.52-18.99,9.43-19.57,8.65-5.51,27.09,12.62,15.66,25.63Z"/><path class="uuid-989a01a4-4776-4ffb-aeca-89178d2164de" d="M152.08,701.99c.46-.25,4.12,2.06,6.05.88,7.46-4.55,14.41-18.28,25.95-18.86-7.09,10.51-4.09,30.19-8.51,40.46-10.61,24.61-35.19-.23-23.49-22.49Z"/><path class="uuid-989a01a4-4776-4ffb-aeca-89178d2164de" d="M830.08,695.99c8.29,8.16-18.19,26.7-19.95,25.98-11.31-9.88,11.03-34.77,19.95-25.98Z"/><path class="uuid-989a01a4-4776-4ffb-aeca-89178d2164de" d="M112.05,280.03c8.41,3.34,9.66,14.42,2.76,18.07-11.67,6.16-11.64-19.25-2.76-18.07Z"/><path class="uuid-989a01a4-4776-4ffb-aeca-89178d2164de" d="M187.45,120.34c11.18.26,6.77,21.18-2.26,17.62-4.45-1.75-7.87-17.86,2.26-17.62Z"/><path class="uuid-989a01a4-4776-4ffb-aeca-89178d2164de" d="M167.56,806.3c12.93-.53,5.45,19.95-4.21,15.54-6.75-3.08-3.49-15.22,4.21-15.54Z"/></g><g id="uuid-d04ad5b6-9ae4-41b4-980c-5cbdd46d3006"><path class="uuid-93170ab2-55bd-42bc-b0c0-1b66228c9214" d="M788.08,289.99c22.13,1.41,60.57,15.12,81.48,13.48,9.48-.74,2.46-3.32-1.47-5.46,6.26-1.89,13.05,1.54,17.99,1.97-.78,5.94,2.87,3.56,6,4l-129.98,36.03,23.96,1.94c-16.73,3.37-31.58,9.02-47.09,16.1-3.03,1.38-7.54-2.15-7.93-2.01-.6.22.69,10.09-4.07,12.02-11.44,4.62,5.7-5.08-6.89-8.08-1.26-.3-4.2,2.02-5.77,1.78-.46-.07-1.52-8.08-7.21-5.76-.93.38-8.18,14.06-11.06,16.86-3.49,3.4-18.61,5.55-8.93,9.16,12.05,4.49,12.1-8.52,14.96,13.96,2.71,21.34,3.52,31.9-19.68,22.68-18.53-7.37-18.02-20.74-22.32-34.68,8.89,1.53,10.81-20.1,16.03-25.98l1.98,11.97,15.96-11.04-15.98-8.94c.53-.99-.36-4.37,0-6,10.3-.75,17.85-5.65,29.99-2.03l-3.99-3.97c9.21-3.46,19.43-2.12,28-8,19.8-1.75,30.96-8.43,46.65-16.37,10.47-5.29,5.63-11.66,17.35-5.65.41-13.73-2-8.6-7.99-17.98ZM730.09,344l-19.99-1.98,17.03,5.96,2.96-3.98Z"/><path class="uuid-93170ab2-55bd-42bc-b0c0-1b66228c9214" d="M406.08,409.99c-.62-.25-2.62-5.69-6.89-3.96-24.12,36.3-9.83-10.57,9.88-12.23,14.19-1.19,22.97,19.59,25.06,20.16,5.49,1.51,5.54-5.87,5.95-5.97,1.15-.3,2.81.28,4,0,14.09-3.31,31.06-10.77,42,4-10.38,18.61-10.98,8.66-26,10-23.51,2.09-46.78,55.8-56,78-.26.34-1.21,1-2,2l-10,8c-5.46-1-15.54-3.32-20-6,3.31-2.51,2.69-6.98,4-10,10.03-3.55,18.96-13.61,22-24,.31-1.05-.22-2.74,0-4,14.93-19.53,40.57-42.64,8-56Z"/><path class="uuid-93170ab2-55bd-42bc-b0c0-1b66228c9214" d="M218.08,297.99c1.07.58,3.64,2.63,6,4,6.52,3.79,12.06,11.63,22,10,17.23,35.2,10.08,5.3,2.01-9.98,40.86,11.03,34.75,39.61,39.99,73.98-3.37,4.9-7.01,10.51-14,10-.35-4.24-12.21-46.82-13.83-48.77-2.11-2.56-5.43-.71-6.17-1.23-20.52-14.22-52.4-22.89-73.24-39.85-8.58-23.82,28.66-2.8,37.24,1.85Z"/><path class="uuid-93170ab2-55bd-42bc-b0c0-1b66228c9214" d="M456.08,347.99c-1.13.89-2.06,2.6-4,4-23.36,3.26-49.55-8.67-64.01-26.99-4.22-5.34-4.6-16.96-10.63-22.36-4.55-4.08-57.59-17.02-40.53-30.87,5.71-4.63,41.14,10.96,46.69,15.7,16.71,14.26,3.49,28.89,38.53,43.47,12.06,5.02,35.93,1.58,33.95,17.05Z"/><path class="uuid-93170ab2-55bd-42bc-b0c0-1b66228c9214" d="M419.61,580.52c8.52-.79,29.98.78,17.57,13.59-7.05,7.28-47.95,5.3-59.28,24.7-3.96,6.78.55,12.13-7.91,20.09-3.53,3.32-47.2,25.75-49.91,18.04-3.57-10.15,33.67-24.21,38.05-29.9,6.44-8.36,1.14-14.69,10.98-25.02,6.18-6.5,41.24-20.64,50.5-21.5Z"/><path class="uuid-93170ab2-55bd-42bc-b0c0-1b66228c9214" d="M686.08,183.99c-15.44,5.71-2.67.37-16-9.97,23.48-5.34,43.65-20.71,68.49-17.51,3.77.49,8.81,7.86,12.24,7.28,4.88-.83,5.93-10.73,8.64-11.86,15.92-6.66,17.48,12.23,23.67,12.06,1.16-.03,5.96-13.35,19.49-9.58,5.73,1.6,7.72,9.64,9.92,11.12.85.57,18.25.16,13.55,6.45-9.72,13.01-25.57-9.59-27.15-9.93-4.7-1-17.79,19.66-31.85-4.16-15.56,23.76-14.15,9.83-32,9.99-8.56.08-3.8,3.16-4.99,4.11-.66.53-5.06-.9-6,2-1.32.04-2.69-.11-4,0-19.04,1.65-18.19,4.15-34,10Z"/><path class="uuid-93170ab2-55bd-42bc-b0c0-1b66228c9214" d="M64.08,553.99l-3.7-37.7,36.67-8.33,4.84,39.86c-13.59-.72-20.55,6.12-33.82,6.17-1.33,0-2.67,0-4,0Z"/><path class="uuid-93170ab2-55bd-42bc-b0c0-1b66228c9214" d="M216.08,417.99c2.4,6.84,10.14,8.81,14,12,.22.18,3.81,3.79,4,4,1.48,1.64,5.21,2.54,6,6,2.76,12.07-10.01,9.91-11.62,12.36-1.37,2.09-.05,11.03-2.38,15.64-6.48,4.41-12.59,15.64-18,16-6.22.41-11.57-2.76-11.5-9.41.12-12.22,5.56,7.95,11.15-.91,6-9.5-3.64-10.96-3.65-11.68,2.11,1.75-2.01,7.57-4,2,.22-.01,2.43-3.3,4-2-.03-2.66.04-5.34,0-8,0-.2,3.97.46,3.95-.9-.17-16.04-3.27-9.15,2.05-29.1.53-1.97,1.91-3.84,2-6,1.31.11,2.71-.17,4,0Z"/><path class="uuid-93170ab2-55bd-42bc-b0c0-1b66228c9214" d="M722.08,731.99c12.6,2.72,55.37-34.73,40-4-1.03.38-3.09-.41-4,0-8.74,3.92-10.43,7.02-16.94,10.23-4.19,2.06-9.06-1.59-13.16.64-1.88,1.02-1.65,5.01-1.9,5.13-21.29,10.21-19.49,2.46-24.88,4.04-3.6,1.05-3.88,12.57-9.15,15.03-7.18,3.35-12.7-4.69-18.56-3.2-2.46.63-2.35,7.69-8.52,8.24-6.85.61-11.7-10.11-17.93-12.12-.83-.27-1.33,4.18-1.94,4.1-14.68-2.04-2.8-15.12,7.93-12.16,6.58,1.82,8.79,12.42,10.05,12.07,2.81-.78,2.87-9.95,8.44-11.71s15.26,5.57,18.46,3.65c.95-.57.99-11.35,7.55-13.61,8.6-2.96,15.91,7.47,18.54,5.68.55-.38.76-7.5,6.03-12Z"/><path class="uuid-93170ab2-55bd-42bc-b0c0-1b66228c9214" d="M626.08,327.99c10.27-9.84,25.63-12.72,39.49-15.51,3.81-.77,35.31-8.2,34.49-1.52-1.52,12.43-45.43,13.88-55.81,20.2-8.93,5.43-19.2,44.53-34.17,20.83,2.52-11.26,11.75-14.37,17.98-21.06,1.92-2.06-2.11-2.82-1.98-2.94Z"/><path class="uuid-93170ab2-55bd-42bc-b0c0-1b66228c9214" d="M104.08,575.99c34.64-16.13,28.05,11.52,28.01,38.66,0,1.83,4.37.7,3.98,2.33-1.48,6.16-24.95,7.98-25.98,7.02-2.63-2.45-3.28-36.11-4.04-42-.15-1.15-7.59,10.44-3.97-2.01.69-.93,1.44-3.74,2-4Z"/><path class="uuid-93170ab2-55bd-42bc-b0c0-1b66228c9214" d="M320.08,567.99c4.28,1.06,12.59,4.77,10,10-2.83.74-22,4.86-22,6v36l-40-37.97,52-14.03Z"/><path class="uuid-93170ab2-55bd-42bc-b0c0-1b66228c9214" d="M144.23,667.9c-18.32-11.87,49.39-51.45,57.04-42.01,9.75,12.04-53.58,44.24-57.04,42.01Z"/><path class="uuid-93170ab2-55bd-42bc-b0c0-1b66228c9214" d="M380.08,357.99h-2c-9.76-13.15-23.66.91-28.11-2.82-3.79-4.27-.98-10.69-1.89-15.18-2.04-10-1.31-21.23-8-29.98,30.28-7.94,29.46,28.42,40,47.98Z"/><path class="uuid-93170ab2-55bd-42bc-b0c0-1b66228c9214" d="M534.08,227.99c-2.76-11.28,16.03-12.79,17.57-14.42,3.23-3.43.24-10.14,11.38-19.64,10.51-8.96,70.28-34.23,27.06.06-10.63-2.64-18.48,10.83-24,16-7.93,7.42-14.07,17.38-26,22-1.89-1.04-5-.53-6-4Z"/><path class="uuid-93170ab2-55bd-42bc-b0c0-1b66228c9214" d="M115.61,440.42c26.8-4.65,23.11,30.52,7.38,33.53-21.66,4.14-30.64-29.5-7.38-33.53Z"/><path class="uuid-93170ab2-55bd-42bc-b0c0-1b66228c9214" d="M514.08,461.99c6.94,13.31,6.36,6.21,14,10,.45.22-1.19,5.49,1.01,6.07,4.06,1.06,13.58-3.87,18.99-2.07-.31.19.73,5.96-5.99,4.02l3.99,3.98c-1.18.32-23.22,1.72-24.45,1.62-7.08-.57-9.22-4.66-13.55-7.62,4.67-6.92-.99-12.11-8-10-5.25-7.91-9.07-26.3,3.04-27.99,7.16-1,9.1,18.41,10.96,21.99Z"/><path class="uuid-93170ab2-55bd-42bc-b0c0-1b66228c9214" d="M146.08,531.99c-71.67,7.32,40.95-36.2,45.99-12.01-15.41,3.94-25.59,7.48-41.99,10.01-1.21.19-2.91,1.89-4,2Z"/><path class="uuid-93170ab2-55bd-42bc-b0c0-1b66228c9214" d="M130.08,327.99c.83-9.01,7.51-14.91,16.58-11.63,7.73,2.8,5.43,15.65,10.68,17.52,8.38,2.97,21.25-18.3,24.74,10.08l-15.98-5.98c-7.02,36.62-22.42-6.44-24.14-7.9-3.21-2.73-7.77,4.41-11.88,5.91.17-2.64-.24-5.37,0-8Z"/><path class="uuid-93170ab2-55bd-42bc-b0c0-1b66228c9214" d="M538.08,197.99c-1.04.92,2.91,7.21-5.32,1.29-30.67-22.08,57.73-56.36,17.32-25.32,11.88-2.7,21.61,2.88,16.02-11.97l5.98,12-34,24Z"/><path class="uuid-93170ab2-55bd-42bc-b0c0-1b66228c9214" d="M446.08,437.99c8.75,14.24,9.61,8.86,24,10,2.63.21,5.38-.26,8,0,1.48.14,3.96,2.12,6,2h2c-1.22,1.23-.06,8.74-10,12-1.17.38-12.42-1.33-16,0-8.35,3.1-1.56,6.06-5.02,8.02-4.17,2.37-5.65-6.88-12.98-8.02-1.62-.25-9.11-.36-10,0-1.59-11.33,5.09-10.57,14.01-10.01,2.64-5.17-4.15-6.6-4.09-7,.97-6.48,3.41-5.6,4.08-6.99Z"/><path class="uuid-93170ab2-55bd-42bc-b0c0-1b66228c9214" d="M530.08,341.99c-2.07-1.28-7.97-.85-9.74-2.31-1.09-.9.58-6.27-.52-7.38-1.77-1.78-10.99-.04-11.47-6.93-.17-2.49,15.79-30.86,20.66-31.3,22.99-2.06-8.54,30.62,3.07,33.92-1.38,4.57-2.4,9.16-2,14Z"/><path class="uuid-93170ab2-55bd-42bc-b0c0-1b66228c9214" d="M552.08,427.99c4.05,15.72,12.05,3.69,15.96,4.04,1.28.12,9.94,12.69,22.04-2.04,2.26.6,6.4,1.1,8,2,30.99,17.37-52.9,23.63-52-4,1.97.16,4.04-.21,6,0Z"/><path class="uuid-93170ab2-55bd-42bc-b0c0-1b66228c9214" d="M107.54,670.4c21.68-6.38,19.62,28.11,3.23,29.15-14.95.95-17.01-25.09-3.23-29.15Z"/><path class="uuid-93170ab2-55bd-42bc-b0c0-1b66228c9214" d="M269.49,498.63c16.31,1.59,12.22,26.44-2.06,26.82-19.34.51-20.03-28.97,2.06-26.82Z"/><path class="uuid-93170ab2-55bd-42bc-b0c0-1b66228c9214" d="M273.49,668.4c25.43-8.96,16.17,29.4,3.61,29.65-11,.22-18.3-24.47-3.61-29.65Z"/><path class="uuid-93170ab2-55bd-42bc-b0c0-1b66228c9214" d="M898.08,313.99v6c-36.42,5.11-71.53,15.17-108.03,19,32.92-14.91,74.75-15.29,108.03-25Z"/><path class="uuid-93170ab2-55bd-42bc-b0c0-1b66228c9214" d="M243.55,378.41c21.89-6.7,21.86,33.47-2.06,25.17-10.92-3.79-7.46-22.26,2.06-25.17Z"/><path class="uuid-93170ab2-55bd-42bc-b0c0-1b66228c9214" d="M574.08,463.99c-6.34,1.66-12.27,6.89-18,10-5.44-27.08,19.79-15.31,32.57-16.45,3.56-.32,21.11-13.65,23.41-2.51s-32.41,7.5-37.99,8.96Z"/><path class="uuid-93170ab2-55bd-42bc-b0c0-1b66228c9214" d="M778.08,687.99c.35-1.04,15.03-14.63,16.07-15,9.26-3.36,16.55,10.78,23.75,16.31.47,4.02-5.54,6.5-7.81,8.7-.75-.42-1.49-1.86-2-2l2.98-8.02c-5.21-.84-6.17,7.35-6.98,8.02-5.2,4.33-3.23,8.11-12,4-1.18-.81-6.6-7.8-14-8,.23-1.22-.34-2.99,0-4ZM798.08,683.99c13.35-24.4-27.26,16.3-2,4-1.43,2.07-4.56,6.67.97,5.98l7.01-7.01-5.98-2.97Z"/><path class="uuid-93170ab2-55bd-42bc-b0c0-1b66228c9214" d="M796.08,687.99c.49-.7-.44-3.02,2-4-.55,1.01.48,2.79-2,4Z"/><path class="uuid-93170ab2-55bd-42bc-b0c0-1b66228c9214" d="M496.08,265.99c17.72,7.14,5.22,34.32-8.15,33.14l-7.38-6.45,11.52-22.7c.71-.4,2.07-3.99,4-4Z"/><path class="uuid-93170ab2-55bd-42bc-b0c0-1b66228c9214" d="M288.54,251.52c-9.69-8.36,1.84-32.24,16.58-19.57,13.03,11.19-4.36,30.11-16.58,19.57Z"/><path class="uuid-93170ab2-55bd-42bc-b0c0-1b66228c9214" d="M314.08,533.99c.3-2.49-1.05-9.67.99-9.99,11.12,17.69,25.13,10.81,41.03,16.96-15.03,9.9-32.05,15.92-42.02-2.97-.05-1.28-.15-2.74,0-4Z"/><path class="uuid-93170ab2-55bd-42bc-b0c0-1b66228c9214" d="M914.08,363.99c4.64,6.94,11.09,5.86,14,6-.1,11.72,15.76,1.76,17.99,4.01l-1.99,13.99c-1.17-.61-5.82.4-8,0-2.91-.54-6.22-3.03-10-2,2.43-1.09,11.4-3.66,10.97-6.04l-44.97,10.01c4.25-8.88,25.3-4.9,26.02-15.01.13-1.77-3.97-.77-4.02-.97-.67-2.66.46-6.98,0-10Z"/><path class="uuid-93170ab2-55bd-42bc-b0c0-1b66228c9214" d="M872.08,723.99c-1,1.27,2.2,5.39-6,4,.28-6.19-8.67-7.53-7.27-14.07.3-1.39,16.85-21.79,18.27-21.89.68-.05,8.8,7.79,8.7,10.57-.05,1.27-12.61,20.02-13.7,21.39Z"/><path class="uuid-93170ab2-55bd-42bc-b0c0-1b66228c9214" d="M148.99,255.03c13.29,12.2-3.67,23.62-14.04,17.09-11.41-7.18-2.21-32.02,14.04-17.09Z"/><path class="uuid-93170ab2-55bd-42bc-b0c0-1b66228c9214" d="M610.08,393.99c.03-.21,4.06.57,4.14-1.1.15-3.24-6.22-9.63-4.11-14.9,10.94,8.98,2.75-1.31,4.95-1.95,1.94-.56,7.74,7.7,11-.03,2.28,9.14,2.63,20.68,12.03,25.98v2c-3.16-1.21-22.97-4.53-28-4,.16-1.97-.23-4.05,0-6Z"/><path class="uuid-93170ab2-55bd-42bc-b0c0-1b66228c9214" d="M634.08,585.99c.81,7.33,4.02,14.9,5.99,21.99-6.32,2.18-15.13-9.59-15.99-9.99-5.24-10.42,6.62,2.48,7.95,1.02-8.57-4.46-3.65-14.2-3.95-15.02,1.91-.08,4.26,1.18,6,2Z"/><path class="uuid-93170ab2-55bd-42bc-b0c0-1b66228c9214" d="M628.08,583.99c-14.05.59-1.93-1.85-17.03-5.94l5.05,8.99-2.98,4.94c-12.4-8.47-4.71-24.47-25.03-25.98-.17-2.85-.37-5.54-2-8,10.59,3.3,38.08,15.15,42,26Z"/><path class="uuid-93170ab2-55bd-42bc-b0c0-1b66228c9214" d="M620.08,521.99c5.93-.46,17.86.31,18,8-6.28,1.81-8.41,5.12-12,10-23.74,7.7-16.88-17.15-6-18Z"/><path class="uuid-93170ab2-55bd-42bc-b0c0-1b66228c9214" d="M360.08,517.99c5.02,4.67,11.44,9.7,18,12,1.65,8.67-6.83,8.85-10,12-13.45-4.32,3.38-26.76-19.04-10.03l-2.96-7.97c4.41-2.01,8.28-5.95,14-6Z"/><path class="uuid-93170ab2-55bd-42bc-b0c0-1b66228c9214" d="M69.79,461.7l-22.41,1.98c-15.09-19.6,28.7-22.06,22.41-1.98Z"/><path class="uuid-93170ab2-55bd-42bc-b0c0-1b66228c9214" d="M742.07,503.97l-65.98-21.96c19.15,3.52,42.51,9.39,60.86,16.1,3.25,1.19,5.87,1.32,5.11,5.86Z"/><path class="uuid-93170ab2-55bd-42bc-b0c0-1b66228c9214" d="M600.08,265.99c1.21-.25,2.73.17,4,0-.83.91-5.38,9.44-8.65,13.26-2.02,2.36-7.08,2.47-7.33,2.77-.53.63,9.97,5.94-.02,13.97-16.92,13.59-2.28-7.09-2.03-8.05.56-2.14-4.08-3.69-3.97-3.95,1.73-3.82,12.79-16.9,18-18Z"/><path class="uuid-93170ab2-55bd-42bc-b0c0-1b66228c9214" d="M754.08,685.99c4.48,9.34-6.41,16.42-14,20l-9.98-4.97,23.98-15.03Z"/><path class="uuid-93170ab2-55bd-42bc-b0c0-1b66228c9214" d="M241.86,604.2c5.93,8.81-10.4,19.74-16.94,11.9s12.53-18.45,16.94-11.9Z"/><path class="uuid-93170ab2-55bd-42bc-b0c0-1b66228c9214" d="M480.08,235.99l4,4c-2.71,3.01-13.4,21.87-15.01,21.99-1.84.14.78-12.68-6.97-2.01,1.4-2.46,3.36-13.08,3.98-13.98.49-.71,12.5-8.21,14-10Z"/><path class="uuid-93170ab2-55bd-42bc-b0c0-1b66228c9214" d="M478.08,571.98c2.02,2.14,1.53,23.1-9.98,17.09-11.97-6.26,3.94-23.46,9.98-17.09Z"/><path class="uuid-93170ab2-55bd-42bc-b0c0-1b66228c9214" d="M352.08,401.99c17.62-6.07,27.69,20.71,6,14-1.85-4.17-3.72-10.34-6-14Z"/><circle class="uuid-93170ab2-55bd-42bc-b0c0-1b66228c9214" cx="531.64" cy="457" r="7.22"/><circle class="uuid-93170ab2-55bd-42bc-b0c0-1b66228c9214" cx="473.55" cy="314.61" r="6.87"/><path class="uuid-93170ab2-55bd-42bc-b0c0-1b66228c9214" d="M638.07,444.01c2.32,3.96-11.05,15.69-15.96,6.94-3.73-6.66,13.56-11.04,15.96-6.94Z"/><path class="uuid-93170ab2-55bd-42bc-b0c0-1b66228c9214" d="M126.08,327.99l-2,12c-12.82.47-20.68-12.3,2-12Z"/><path class="uuid-93170ab2-55bd-42bc-b0c0-1b66228c9214" d="M200.07,351.99l-1.33,6.05c-6.57,2.09-13.37,2.29-18.64-3.07l19.97-2.98Z"/><path class="uuid-93170ab2-55bd-42bc-b0c0-1b66228c9214" d="M380.08,415.99c-1.71,4.28-2.62,9.54-4,14-.3-1-16.31-8.79,4-14Z"/><polygon class="uuid-93170ab2-55bd-42bc-b0c0-1b66228c9214" points="444.08 511.99 454.09 513.04 449.05 521.98 444.08 511.99"/><path class="uuid-93170ab2-55bd-42bc-b0c0-1b66228c9214" d="M780.08,289.99c-1.09-.01-29.41,6.62-20,.02,2.45-1.72,13.45,3.84,12-4.02,3.09.82,6.1.83,8,4Z"/><path class="uuid-93170ab2-55bd-42bc-b0c0-1b66228c9214" d="M118.08,635.99c-1.69.93-3.19,7.49-7.98,6,.22-2.93-.97-5.39-2.02-8l4.99-5.99,5.01,7.99Z"/><path class="uuid-93170ab2-55bd-42bc-b0c0-1b66228c9214" d="M844.07,169.97l-13.97-5.98c4.93,2.34,14.28-2.63,13.97,5.98Z"/><path class="uuid-93170ab2-55bd-42bc-b0c0-1b66228c9214" d="M516.07,395.97h-7.97s0-7.97,0-7.97c6.2-.93,8.9,1.91,7.97,7.97Z"/><path class="uuid-93170ab2-55bd-42bc-b0c0-1b66228c9214" d="M590.08,303.99c6.76-2.08,9.03-4.54,8,4-.65.18-2.06,5.54-5.97,3.99-.38-2.73-1.41-5.31-2.03-7.99Z"/><polygon class="uuid-93170ab2-55bd-42bc-b0c0-1b66228c9214" points="446.07 308 443.11 315.97 438.08 308.01 446.07 308"/><path class="uuid-93170ab2-55bd-42bc-b0c0-1b66228c9214" d="M196.07,492c.85,6.92-1.64,2.57-3.91,3.01-14.56,2.77-9.19-5.66,3.91-3.01Z"/><path class="uuid-93170ab2-55bd-42bc-b0c0-1b66228c9214" d="M680.08,123.99c-19.88-2.77,1.96-8.95,4,0-1.28-.19-2.71.18-4,0Z"/><path class="uuid-93170ab2-55bd-42bc-b0c0-1b66228c9214" d="M924.08,615.99c-.95.98.04,6.78-8,6,2.36-4.37.24-5.39,8-6Z"/><path class="uuid-93170ab2-55bd-42bc-b0c0-1b66228c9214" d="M610.08,305.99l-2.03,5.98-1.97-3.98c2.18-.45-4.77-4.22,4-2Z"/><path class="uuid-93170ab2-55bd-42bc-b0c0-1b66228c9214" d="M540.08,197.99c.63-.6,1.25-1.64,2-2-.4.93-1.35,1.35-2,2Z"/><polygon class="uuid-93170ab2-55bd-42bc-b0c0-1b66228c9214" points="565.08 157.99 566.08 158.99 565.08 159.99 565.08 157.99"/><path class="uuid-93170ab2-55bd-42bc-b0c0-1b66228c9214" d="M700.08,559.99c-5.23,2.53-2.82,8.33-12.96,8.18-5.95-.09-15.89-8.22-22.12-10.11-1.03-1.7,8.45-17.47,9.39-17.86,1.77-.74,37.6,6.52,31.69,15.79-1.24.53-3.58,2.83-6,4Z"/><path class="uuid-93170ab2-55bd-42bc-b0c0-1b66228c9214" d="M572.08,573.99c1.23-5.48-9.53-32.26,8.65-14.15,5.79,5.77,8.25,30.53-8.65,14.15Z"/><path class="uuid-93170ab2-55bd-42bc-b0c0-1b66228c9214" d="M736.08,429.99l-5.99-7.99,29.97,2c.55,6.73-14.1,7.62-17.99,7.99-.31.03-1.41-2.22-6-2Z"/><path class="uuid-93170ab2-55bd-42bc-b0c0-1b66228c9214" d="M708.06,415.97c-4.03-2.24-3.15-11.95-3.95-15.99,6.09,2.43,3.65,10.76,3.95,15.99Z"/><polygon class="uuid-93170ab2-55bd-42bc-b0c0-1b66228c9214" points="709.08 417.99 710.08 418.99 709.08 419.99 709.08 417.99"/><path class="uuid-93170ab2-55bd-42bc-b0c0-1b66228c9214" d="M298.08,467.99l14.98,54.03c-14.15-13.17-19.04-36.25-28.98-54.03,2.11.12,7.47-.47,14,0Z"/><path class="uuid-93170ab2-55bd-42bc-b0c0-1b66228c9214" d="M300.08,431.99l2,16c-2.67.03-5.33-.02-8,0h-4c-.67,0-1.33,0-2,0-3.58-11,6.65-11.66,12-16Z"/><path class="uuid-93170ab2-55bd-42bc-b0c0-1b66228c9214" d="M344.08,493.99c3.56,6.36,5.98,6.96,8,10,.31.46-.31,1.56,0,2h-14.01c-.27-5.7-1.15-12.11,6.01-12Z"/><polygon class="uuid-93170ab2-55bd-42bc-b0c0-1b66228c9214" points="619.06 302.04 621.11 303.99 621.11 305.94 620.08 305.01 619.06 302.04"/><path class="uuid-93170ab2-55bd-42bc-b0c0-1b66228c9214" d="M246.08,441.99c6.84-9.21,16.85-25.5,23.91-33.09,8.39-9.02,55.23-49.89,30.11-12.92l9.97,4c-19.34-3.99-11.86,6.24-18.95,12.06-13.53,11.1-25.81,19.47-39.04,31.96l-6-2Z"/><rect class="uuid-93170ab2-55bd-42bc-b0c0-1b66228c9214" x="444.1" y="243.98" width="21.97" height="2.02" transform="translate(209.95 699.99) rotate(-89.98)"/><path class="uuid-93170ab2-55bd-42bc-b0c0-1b66228c9214" d="M460.07,264c2.04,2.06-3.95,8.01-5.97,5.97s3.95-8.01,5.97-5.97Z"/><path class="uuid-93170ab2-55bd-42bc-b0c0-1b66228c9214" d="M920.08,649.99l4.66,2.4,3.32,23.59c-22.03-7.36-11.07-9.44-7.99-25.99l-16.03,30-9.06-3.97,27.13-52.01c5.36,7.44-.52,17.84-2.03,25.98Z"/><path class="uuid-93170ab2-55bd-42bc-b0c0-1b66228c9214" d="M500.06,512.02c-17.29,7.98-29.9-3.73-35.93-19.06l35.93,19.06Z"/><polygon class="uuid-93170ab2-55bd-42bc-b0c0-1b66228c9214" points="534.08 515.99 528.25 515.82 526.14 508.13 540.07 504 534.08 515.99"/><path class="uuid-93170ab2-55bd-42bc-b0c0-1b66228c9214" d="M539.78,240.3c1.82,4.01-11.5,21.38-12.85,21.65-.7.14-12.55-5.34-12.84-5.99-.73-1.64,18.98-30.47,25.69-15.66Z"/><path class="uuid-93170ab2-55bd-42bc-b0c0-1b66228c9214" d="M210.07,253.97l-49.06-36.05,16.09-25.93c18.99,24.61,42.76,22.49,32.97,61.98Z"/><polygon class="uuid-93170ab2-55bd-42bc-b0c0-1b66228c9214" points="386.07 422 382.11 427.99 382.1 422 386.07 422"/><path class="uuid-93170ab2-55bd-42bc-b0c0-1b66228c9214" d="M852.08,623.99c5.46-5.09,5.6-.28,10.79-11.86l26.67,10.78-16.33,25.03-31.12-3.96c3.27-6.57,6.57-13.52,9.99-19.99Z"/><path class="uuid-93170ab2-55bd-42bc-b0c0-1b66228c9214" d="M92.08,365.99c1.36,17.56,27.53,29.11,31.03,47.95l-36.16-7.82,3.13-40.13c.6.26,1.56-.28,2,0Z"/><path class="uuid-93170ab2-55bd-42bc-b0c0-1b66228c9214" d="M654.06,197.99c5.73,4.4,3.96,31.62-12.78,19.86s9.71-22.22,12.78-19.86Z"/><path class="uuid-93170ab2-55bd-42bc-b0c0-1b66228c9214" d="M318.08,507.99c-6.08-6.8,10.56-14.07,16.22-8.8,9.89,9.21-10.96,14.68-16.22,8.8Z"/><path class="uuid-93170ab2-55bd-42bc-b0c0-1b66228c9214" d="M106.07,237.97c-4.38,4.11-28.56-9.72-25.99-16.94,4.11-11.57,32.13,11.19,25.99,16.94Z"/><path class="uuid-93170ab2-55bd-42bc-b0c0-1b66228c9214" d="M2.61,463.47c-6.46-6.83-.04-19.49,9.44-14.53s-1.85,22.55-9.44,14.53Z"/></g></g></svg>
